<?xml version="1.0" ?><svg xmlns="http://www.w3.org/2000/svg" xmlns:xlink="http://www.w3.org/1999/xlink" width="1920" zoomAndPan="magnify" viewBox="0 0 1440 809.999993" height="1080" preserveAspectRatio="xMidYMid meet" version="1.2"><defs><linearGradient x1="960" gradientTransform="matrix(0.75,0,0,0.75,0.00000622222,0.00002)" y1="1079.999955" x2="960" gradientUnits="userSpaceOnUse" y2="0" id="f83f7b1fd6"><stop style="stop-color:#113320;stop-opacity:1;" offset="0"/><stop style="stop-color:#113421;stop-opacity:1;" offset="0.00390625"/><stop style="stop-color:#113421;stop-opacity:1;" offset="0.0078125"/><stop style="stop-color:#123522;stop-opacity:1;" offset="0.0117188"/><stop style="stop-color:#123623;stop-opacity:1;" offset="0.015625"/><stop style="stop-color:#123723;stop-opacity:1;" offset="0.0195313"/><stop style="stop-color:#123724;stop-opacity:1;" offset="0.0234375"/><stop style="stop-color:#123825;stop-opacity:1;" offset="0.0273438"/><stop style="stop-color:#123926;stop-opacity:1;" offset="0.03125"/><stop style="stop-color:#133926;stop-opacity:1;" offset="0.0351562"/><stop style="stop-color:#133a27;stop-opacity:1;" offset="0.0390625"/><stop style="stop-color:#133b28;stop-opacity:1;" offset="0.0429688"/><stop style="stop-color:#133b29;stop-opacity:1;" offset="0.046875"/><stop style="stop-color:#133c29;stop-opacity:1;" offset="0.0507812"/><stop style="stop-color:#133d2a;stop-opacity:1;" offset="0.0546875"/><stop style="stop-color:#143e2b;stop-opacity:1;" offset="0.0585938"/><stop style="stop-color:#143e2b;stop-opacity:1;" offset="0.0625"/><stop style="stop-color:#143f2c;stop-opacity:1;" offset="0.0664062"/><stop style="stop-color:#14402d;stop-opacity:1;" offset="0.0703125"/><stop style="stop-color:#14402e;stop-opacity:1;" offset="0.0742187"/><stop style="stop-color:#14412e;stop-opacity:1;" offset="0.078125"/><stop style="stop-color:#15422f;stop-opacity:1;" offset="0.0820312"/><stop style="stop-color:#154230;stop-opacity:1;" offset="0.0859375"/><stop style="stop-color:#154330;stop-opacity:1;" offset="0.0898437"/><stop style="stop-color:#154431;stop-opacity:1;" offset="0.09375"/><stop style="stop-color:#154532;stop-opacity:1;" offset="0.0976562"/><stop style="stop-color:#154533;stop-opacity:1;" offset="0.101562"/><stop style="stop-color:#154633;stop-opacity:1;" offset="0.105469"/><stop style="stop-color:#164734;stop-opacity:1;" offset="0.109375"/><stop style="stop-color:#164735;stop-opacity:1;" offset="0.113281"/><stop style="stop-color:#164835;stop-opacity:1;" offset="0.117187"/><stop style="stop-color:#164936;stop-opacity:1;" offset="0.121094"/><stop style="stop-color:#164a37;stop-opacity:1;" offset="0.125"/><stop style="stop-color:#164a38;stop-opacity:1;" offset="0.128906"/><stop style="stop-color:#174b38;stop-opacity:1;" offset="0.132812"/><stop style="stop-color:#174c39;stop-opacity:1;" offset="0.136719"/><stop style="stop-color:#174c3a;stop-opacity:1;" offset="0.140625"/><stop style="stop-color:#174d3a;stop-opacity:1;" offset="0.144531"/><stop style="stop-color:#174e3b;stop-opacity:1;" offset="0.148437"/><stop style="stop-color:#174e3c;stop-opacity:1;" offset="0.152344"/><stop style="stop-color:#184f3d;stop-opacity:1;" offset="0.15625"/><stop style="stop-color:#18503d;stop-opacity:1;" offset="0.160156"/><stop style="stop-color:#18513e;stop-opacity:1;" offset="0.164062"/><stop style="stop-color:#18513f;stop-opacity:1;" offset="0.167969"/><stop style="stop-color:#185240;stop-opacity:1;" offset="0.171875"/><stop style="stop-color:#185340;stop-opacity:1;" offset="0.175781"/><stop style="stop-color:#195341;stop-opacity:1;" offset="0.179687"/><stop style="stop-color:#195442;stop-opacity:1;" offset="0.183594"/><stop style="stop-color:#195542;stop-opacity:1;" offset="0.1875"/><stop style="stop-color:#195543;stop-opacity:1;" offset="0.191406"/><stop style="stop-color:#195644;stop-opacity:1;" offset="0.195312"/><stop style="stop-color:#195745;stop-opacity:1;" offset="0.199219"/><stop style="stop-color:#1a5845;stop-opacity:1;" offset="0.203125"/><stop style="stop-color:#1a5846;stop-opacity:1;" offset="0.207031"/><stop style="stop-color:#1a5947;stop-opacity:1;" offset="0.210937"/><stop style="stop-color:#1a5a47;stop-opacity:1;" offset="0.214844"/><stop style="stop-color:#1a5a48;stop-opacity:1;" offset="0.21875"/><stop style="stop-color:#1a5b49;stop-opacity:1;" offset="0.222656"/><stop style="stop-color:#1b5c4a;stop-opacity:1;" offset="0.226562"/><stop style="stop-color:#1b5c4a;stop-opacity:1;" offset="0.230469"/><stop style="stop-color:#1b5d4b;stop-opacity:1;" offset="0.234375"/><stop style="stop-color:#1b5e4c;stop-opacity:1;" offset="0.238281"/><stop style="stop-color:#1b5f4c;stop-opacity:1;" offset="0.242187"/><stop style="stop-color:#1b5f4d;stop-opacity:1;" offset="0.246094"/><stop style="stop-color:#1c604e;stop-opacity:1;" offset="0.25"/><stop style="stop-color:#1c614f;stop-opacity:1;" offset="0.253906"/><stop style="stop-color:#1c614f;stop-opacity:1;" offset="0.257812"/><stop style="stop-color:#1c6250;stop-opacity:1;" offset="0.261719"/><stop style="stop-color:#1c6351;stop-opacity:1;" offset="0.265625"/><stop style="stop-color:#1c6451;stop-opacity:1;" offset="0.269531"/><stop style="stop-color:#1d6452;stop-opacity:1;" offset="0.273437"/><stop style="stop-color:#1d6553;stop-opacity:1;" offset="0.277344"/><stop style="stop-color:#1d6654;stop-opacity:1;" offset="0.28125"/><stop style="stop-color:#1d6654;stop-opacity:1;" offset="0.285156"/><stop style="stop-color:#1d6755;stop-opacity:1;" offset="0.289062"/><stop style="stop-color:#1d6856;stop-opacity:1;" offset="0.292969"/><stop style="stop-color:#1d6857;stop-opacity:1;" offset="0.296875"/><stop style="stop-color:#1e6957;stop-opacity:1;" offset="0.300781"/><stop style="stop-color:#1e6a58;stop-opacity:1;" offset="0.304687"/><stop style="stop-color:#1e6b59;stop-opacity:1;" offset="0.308594"/><stop style="stop-color:#1e6b59;stop-opacity:1;" offset="0.3125"/><stop style="stop-color:#1e6c5a;stop-opacity:1;" offset="0.316406"/><stop style="stop-color:#1e6d5b;stop-opacity:1;" offset="0.320312"/><stop style="stop-color:#1f6d5c;stop-opacity:1;" offset="0.324219"/><stop style="stop-color:#1f6e5c;stop-opacity:1;" offset="0.328125"/><stop style="stop-color:#1f6f5d;stop-opacity:1;" offset="0.332031"/><stop style="stop-color:#1f6f5e;stop-opacity:1;" offset="0.335937"/><stop style="stop-color:#1f705e;stop-opacity:1;" offset="0.339844"/><stop style="stop-color:#1f715f;stop-opacity:1;" offset="0.34375"/><stop style="stop-color:#207260;stop-opacity:1;" offset="0.347656"/><stop style="stop-color:#207261;stop-opacity:1;" offset="0.351562"/><stop style="stop-color:#207361;stop-opacity:1;" offset="0.355469"/><stop style="stop-color:#207462;stop-opacity:1;" offset="0.359375"/><stop style="stop-color:#207463;stop-opacity:1;" offset="0.363281"/><stop style="stop-color:#207563;stop-opacity:1;" offset="0.367187"/><stop style="stop-color:#217664;stop-opacity:1;" offset="0.371094"/><stop style="stop-color:#217765;stop-opacity:1;" offset="0.375"/><stop style="stop-color:#217766;stop-opacity:1;" offset="0.378906"/><stop style="stop-color:#217866;stop-opacity:1;" offset="0.382812"/><stop style="stop-color:#217967;stop-opacity:1;" offset="0.386719"/><stop style="stop-color:#217968;stop-opacity:1;" offset="0.390625"/><stop style="stop-color:#227a69;stop-opacity:1;" offset="0.394531"/><stop style="stop-color:#227b69;stop-opacity:1;" offset="0.398437"/><stop style="stop-color:#227b6a;stop-opacity:1;" offset="0.402344"/><stop style="stop-color:#227c6b;stop-opacity:1;" offset="0.40625"/><stop style="stop-color:#227d6b;stop-opacity:1;" offset="0.410156"/><stop style="stop-color:#227e6c;stop-opacity:1;" offset="0.414062"/><stop style="stop-color:#237e6d;stop-opacity:1;" offset="0.417969"/><stop style="stop-color:#237f6e;stop-opacity:1;" offset="0.421875"/><stop style="stop-color:#23806e;stop-opacity:1;" offset="0.425781"/><stop style="stop-color:#23806f;stop-opacity:1;" offset="0.429687"/><stop style="stop-color:#238170;stop-opacity:1;" offset="0.433594"/><stop style="stop-color:#238270;stop-opacity:1;" offset="0.4375"/><stop style="stop-color:#248271;stop-opacity:1;" offset="0.441406"/><stop style="stop-color:#248372;stop-opacity:1;" offset="0.445312"/><stop style="stop-color:#248473;stop-opacity:1;" offset="0.449219"/><stop style="stop-color:#248573;stop-opacity:1;" offset="0.453125"/><stop style="stop-color:#248574;stop-opacity:1;" offset="0.457031"/><stop style="stop-color:#248675;stop-opacity:1;" offset="0.460937"/><stop style="stop-color:#258775;stop-opacity:1;" offset="0.464844"/><stop style="stop-color:#258776;stop-opacity:1;" offset="0.46875"/><stop style="stop-color:#258877;stop-opacity:1;" offset="0.472656"/><stop style="stop-color:#258978;stop-opacity:1;" offset="0.476562"/><stop style="stop-color:#258978;stop-opacity:1;" offset="0.480469"/><stop style="stop-color:#258a79;stop-opacity:1;" offset="0.484375"/><stop style="stop-color:#268b7a;stop-opacity:1;" offset="0.488281"/><stop style="stop-color:#268c7a;stop-opacity:1;" offset="0.492187"/><stop style="stop-color:#268c7b;stop-opacity:1;" offset="0.496094"/><stop style="stop-color:#268d7c;stop-opacity:1;" offset="0.5"/><stop style="stop-color:#278e7c;stop-opacity:1;" offset="0.503906"/><stop style="stop-color:#288f7d;stop-opacity:1;" offset="0.507812"/><stop style="stop-color:#2a907d;stop-opacity:1;" offset="0.511719"/><stop style="stop-color:#2b917e;stop-opacity:1;" offset="0.515625"/><stop style="stop-color:#2c917e;stop-opacity:1;" offset="0.519531"/><stop style="stop-color:#2d927f;stop-opacity:1;" offset="0.523438"/><stop style="stop-color:#2f937f;stop-opacity:1;" offset="0.527344"/><stop style="stop-color:#30947f;stop-opacity:1;" offset="0.53125"/><stop style="stop-color:#319580;stop-opacity:1;" offset="0.535156"/><stop style="stop-color:#329680;stop-opacity:1;" offset="0.539062"/><stop style="stop-color:#339781;stop-opacity:1;" offset="0.542969"/><stop style="stop-color:#359881;stop-opacity:1;" offset="0.546875"/><stop style="stop-color:#369982;stop-opacity:1;" offset="0.550781"/><stop style="stop-color:#379982;stop-opacity:1;" offset="0.554688"/><stop style="stop-color:#389a82;stop-opacity:1;" offset="0.558594"/><stop style="stop-color:#3a9b83;stop-opacity:1;" offset="0.5625"/><stop style="stop-color:#3b9c83;stop-opacity:1;" offset="0.566406"/><stop style="stop-color:#3c9d84;stop-opacity:1;" offset="0.570312"/><stop style="stop-color:#3d9e84;stop-opacity:1;" offset="0.574219"/><stop style="stop-color:#3e9f85;stop-opacity:1;" offset="0.578125"/><stop style="stop-color:#40a085;stop-opacity:1;" offset="0.582031"/><stop style="stop-color:#41a186;stop-opacity:1;" offset="0.585938"/><stop style="stop-color:#42a186;stop-opacity:1;" offset="0.589844"/><stop style="stop-color:#43a286;stop-opacity:1;" offset="0.59375"/><stop style="stop-color:#44a387;stop-opacity:1;" offset="0.597656"/><stop style="stop-color:#46a487;stop-opacity:1;" offset="0.601562"/><stop style="stop-color:#47a588;stop-opacity:1;" offset="0.605469"/><stop style="stop-color:#48a688;stop-opacity:1;" offset="0.609375"/><stop style="stop-color:#49a789;stop-opacity:1;" offset="0.613281"/><stop style="stop-color:#4ba889;stop-opacity:1;" offset="0.617188"/><stop style="stop-color:#4ca98a;stop-opacity:1;" offset="0.621094"/><stop style="stop-color:#4daa8a;stop-opacity:1;" offset="0.625"/><stop style="stop-color:#4eaa8a;stop-opacity:1;" offset="0.628906"/><stop style="stop-color:#4fab8b;stop-opacity:1;" offset="0.632812"/><stop style="stop-color:#51ac8b;stop-opacity:1;" offset="0.636719"/><stop style="stop-color:#52ad8c;stop-opacity:1;" offset="0.640625"/><stop style="stop-color:#53ae8c;stop-opacity:1;" offset="0.644531"/><stop style="stop-color:#54af8d;stop-opacity:1;" offset="0.648438"/><stop style="stop-color:#56b08d;stop-opacity:1;" offset="0.652344"/><stop style="stop-color:#57b18d;stop-opacity:1;" offset="0.65625"/><stop style="stop-color:#58b28e;stop-opacity:1;" offset="0.660156"/><stop style="stop-color:#59b28e;stop-opacity:1;" offset="0.664062"/><stop style="stop-color:#5ab38f;stop-opacity:1;" offset="0.667969"/><stop style="stop-color:#5cb48f;stop-opacity:1;" offset="0.671875"/><stop style="stop-color:#5db590;stop-opacity:1;" offset="0.675781"/><stop style="stop-color:#5eb690;stop-opacity:1;" offset="0.679688"/><stop style="stop-color:#5fb791;stop-opacity:1;" offset="0.683594"/><stop style="stop-color:#61b891;stop-opacity:1;" offset="0.6875"/><stop style="stop-color:#62b991;stop-opacity:1;" offset="0.691406"/><stop style="stop-color:#63ba92;stop-opacity:1;" offset="0.695312"/><stop style="stop-color:#64ba92;stop-opacity:1;" offset="0.699219"/><stop style="stop-color:#65bb93;stop-opacity:1;" offset="0.703125"/><stop style="stop-color:#67bc93;stop-opacity:1;" offset="0.707031"/><stop style="stop-color:#68bd94;stop-opacity:1;" offset="0.710938"/><stop style="stop-color:#69be94;stop-opacity:1;" offset="0.714844"/><stop style="stop-color:#6abf94;stop-opacity:1;" offset="0.71875"/><stop style="stop-color:#6bc095;stop-opacity:1;" offset="0.722656"/><stop style="stop-color:#6dc195;stop-opacity:1;" offset="0.726562"/><stop style="stop-color:#6ec296;stop-opacity:1;" offset="0.730469"/><stop style="stop-color:#6fc296;stop-opacity:1;" offset="0.734375"/><stop style="stop-color:#70c397;stop-opacity:1;" offset="0.738281"/><stop style="stop-color:#72c497;stop-opacity:1;" offset="0.742188"/><stop style="stop-color:#73c598;stop-opacity:1;" offset="0.746094"/><stop style="stop-color:#74c698;stop-opacity:1;" offset="0.75"/><stop style="stop-color:#75c798;stop-opacity:1;" offset="0.753906"/><stop style="stop-color:#76c899;stop-opacity:1;" offset="0.757812"/><stop style="stop-color:#78c999;stop-opacity:1;" offset="0.761719"/><stop style="stop-color:#79ca9a;stop-opacity:1;" offset="0.765625"/><stop style="stop-color:#7aca9a;stop-opacity:1;" offset="0.769531"/><stop style="stop-color:#7bcb9b;stop-opacity:1;" offset="0.773438"/><stop style="stop-color:#7dcc9b;stop-opacity:1;" offset="0.777344"/><stop style="stop-color:#7ecd9b;stop-opacity:1;" offset="0.78125"/><stop style="stop-color:#7fce9c;stop-opacity:1;" offset="0.785156"/><stop style="stop-color:#80cf9c;stop-opacity:1;" offset="0.789062"/><stop style="stop-color:#81d09d;stop-opacity:1;" offset="0.792969"/><stop style="stop-color:#83d19d;stop-opacity:1;" offset="0.796875"/><stop style="stop-color:#84d29e;stop-opacity:1;" offset="0.800781"/><stop style="stop-color:#85d29e;stop-opacity:1;" offset="0.804688"/><stop style="stop-color:#86d39f;stop-opacity:1;" offset="0.808594"/><stop style="stop-color:#88d49f;stop-opacity:1;" offset="0.8125"/><stop style="stop-color:#89d59f;stop-opacity:1;" offset="0.816406"/><stop style="stop-color:#8ad6a0;stop-opacity:1;" offset="0.820312"/><stop style="stop-color:#8bd7a0;stop-opacity:1;" offset="0.824219"/><stop style="stop-color:#8cd8a1;stop-opacity:1;" offset="0.828125"/><stop style="stop-color:#8ed9a1;stop-opacity:1;" offset="0.832031"/><stop style="stop-color:#8fdaa2;stop-opacity:1;" offset="0.835938"/><stop style="stop-color:#90daa2;stop-opacity:1;" offset="0.839844"/><stop style="stop-color:#91dba2;stop-opacity:1;" offset="0.84375"/><stop style="stop-color:#93dca3;stop-opacity:1;" offset="0.847656"/><stop style="stop-color:#94dda3;stop-opacity:1;" offset="0.851562"/><stop style="stop-color:#95dea4;stop-opacity:1;" offset="0.855469"/><stop style="stop-color:#96dfa4;stop-opacity:1;" offset="0.859375"/><stop style="stop-color:#97e0a5;stop-opacity:1;" offset="0.863281"/><stop style="stop-color:#99e1a5;stop-opacity:1;" offset="0.867188"/><stop style="stop-color:#9ae2a6;stop-opacity:1;" offset="0.871094"/><stop style="stop-color:#9be3a6;stop-opacity:1;" offset="0.875"/><stop style="stop-color:#9ce3a6;stop-opacity:1;" offset="0.878906"/><stop style="stop-color:#9de4a7;stop-opacity:1;" offset="0.882812"/><stop style="stop-color:#9fe5a7;stop-opacity:1;" offset="0.886719"/><stop style="stop-color:#a0e6a8;stop-opacity:1;" offset="0.890625"/><stop style="stop-color:#a1e7a8;stop-opacity:1;" offset="0.894531"/><stop style="stop-color:#a2e8a9;stop-opacity:1;" offset="0.898438"/><stop style="stop-color:#a4e9a9;stop-opacity:1;" offset="0.902344"/><stop style="stop-color:#a5eaaa;stop-opacity:1;" offset="0.90625"/><stop style="stop-color:#a6ebaa;stop-opacity:1;" offset="0.910156"/><stop style="stop-color:#a7ebaa;stop-opacity:1;" offset="0.914062"/><stop style="stop-color:#a8ecab;stop-opacity:1;" offset="0.917969"/><stop style="stop-color:#aaedab;stop-opacity:1;" offset="0.921875"/><stop style="stop-color:#abeeac;stop-opacity:1;" offset="0.925781"/><stop style="stop-color:#acefac;stop-opacity:1;" offset="0.929688"/><stop style="stop-color:#adf0ad;stop-opacity:1;" offset="0.933594"/><stop style="stop-color:#aff1ad;stop-opacity:1;" offset="0.9375"/><stop style="stop-color:#b0f2ad;stop-opacity:1;" offset="0.941406"/><stop style="stop-color:#b1f3ae;stop-opacity:1;" offset="0.945312"/><stop style="stop-color:#b2f3ae;stop-opacity:1;" offset="0.949219"/><stop style="stop-color:#b3f4af;stop-opacity:1;" offset="0.953125"/><stop style="stop-color:#b5f5af;stop-opacity:1;" offset="0.957031"/><stop style="stop-color:#b6f6b0;stop-opacity:1;" offset="0.960938"/><stop style="stop-color:#b7f7b0;stop-opacity:1;" offset="0.964844"/><stop style="stop-color:#b8f8b1;stop-opacity:1;" offset="0.96875"/><stop style="stop-color:#baf9b1;stop-opacity:1;" offset="0.972656"/><stop style="stop-color:#bbfab1;stop-opacity:1;" offset="0.976562"/><stop style="stop-color:#bcfbb2;stop-opacity:1;" offset="0.980469"/><stop style="stop-color:#bdfbb2;stop-opacity:1;" offset="0.984375"/><stop style="stop-color:#befcb3;stop-opacity:1;" offset="0.988281"/><stop style="stop-color:#c0fdb3;stop-opacity:1;" offset="0.992188"/><stop style="stop-color:#c1feb4;stop-opacity:1;" offset="0.996094"/><stop style="stop-color:#c2ffb4;stop-opacity:1;" offset="1"/></linearGradient><filter x="0%" y="0%" width="100%" filterUnits="objectBoundingBox" id="14214f055d" height="100%"><feColorMatrix values="0 0 0 0 1 0 0 0 0 1 0 0 0 0 1 0 0 0 1 0" type="matrix" in="SourceGraphic"/></filter><clipPath id="e684370873"><path d="M 17 58 L 77 58 L 77 117 L 17 117 Z M 17 58 "/></clipPath><clipPath id="5377eefe7f"><path d="M 51.671875 -0.152344 L 130.390625 50.765625 L 78.660156 130.742188 L -0.0585938 79.828125 Z M 51.671875 -0.152344 "/></clipPath><clipPath id="e85439cc66"><path d="M 51.671875 -0.152344 L 130.390625 50.765625 L 78.660156 130.742188 L -0.0585938 79.828125 Z M 51.671875 -0.152344 "/></clipPath><clipPath id="9e85b5b30c"><path d="M 23 28 L 48 28 L 48 59 L 23 59 Z M 23 28 "/></clipPath><clipPath id="c6df8621e6"><path d="M 51.671875 -0.152344 L 130.390625 50.765625 L 78.660156 130.742188 L -0.0585938 79.828125 Z M 51.671875 -0.152344 "/></clipPath><clipPath id="4c982c4388"><path d="M 51.671875 -0.152344 L 130.390625 50.765625 L 78.660156 130.742188 L -0.0585938 79.828125 Z M 51.671875 -0.152344 "/></clipPath><clipPath id="0989d59972"><path d="M 81 71 L 110 71 L 110 98 L 81 98 Z M 81 71 "/></clipPath><clipPath id="951b7e1d13"><path d="M 51.671875 -0.152344 L 130.390625 50.765625 L 78.660156 130.742188 L -0.0585938 79.828125 Z M 51.671875 -0.152344 "/></clipPath><clipPath id="fb127b9396"><path d="M 51.671875 -0.152344 L 130.390625 50.765625 L 78.660156 130.742188 L -0.0585938 79.828125 Z M 51.671875 -0.152344 "/></clipPath><clipPath id="54334391b0"><path d="M 54 17 L 82 17 L 82 48 L 54 48 Z M 54 17 "/></clipPath><clipPath id="c87955591c"><path d="M 51.671875 -0.152344 L 130.390625 50.765625 L 78.660156 130.742188 L -0.0585938 79.828125 Z M 51.671875 -0.152344 "/></clipPath><clipPath id="bddeae3e0c"><path d="M 51.671875 -0.152344 L 130.390625 50.765625 L 78.660156 130.742188 L -0.0585938 79.828125 Z M 51.671875 -0.152344 "/></clipPath><clipPath id="81d74300b9"><path d="M 80 34 L 108 34 L 108 66 L 80 66 Z M 80 34 "/></clipPath><clipPath id="b23b928e45"><path d="M 51.671875 -0.152344 L 130.390625 50.765625 L 78.660156 130.742188 L -0.0585938 79.828125 Z M 51.671875 -0.152344 "/></clipPath><clipPath id="93e9d8e5c5"><path d="M 51.671875 -0.152344 L 130.390625 50.765625 L 78.660156 130.742188 L -0.0585938 79.828125 Z M 51.671875 -0.152344 "/></clipPath><clipPath id="f8b8d3c684"><rect x="0" width="130" y="0" height="131"/></clipPath><clipPath id="ed83832f43"><path d="M 42 45 L 89 45 L 89 91 L 42 91 Z M 42 45 "/></clipPath><clipPath id="edabb697e3"><path d="M -0.105469 42.171875 L 57.914062 -0.460938 L 101.4375 58.765625 L 43.417969 101.402344 Z M -0.105469 42.171875 "/></clipPath><clipPath id="bba92f6231"><path d="M -0.105469 42.171875 L 57.914062 -0.460938 L 101.4375 58.765625 L 43.417969 101.402344 Z M -0.105469 42.171875 "/></clipPath><clipPath id="908f9fadfe"><path d="M 16 55 L 39 55 L 39 77 L 16 77 Z M 16 55 "/></clipPath><clipPath id="da29ce1662"><path d="M -0.105469 42.171875 L 57.914062 -0.460938 L 101.4375 58.765625 L 43.417969 101.402344 Z M -0.105469 42.171875 "/></clipPath><clipPath id="f8a817c27d"><path d="M -0.105469 42.171875 L 57.914062 -0.460938 L 101.4375 58.765625 L 43.417969 101.402344 Z M -0.105469 42.171875 "/></clipPath><clipPath id="60e69971eb"><path d="M 64 21 L 83 21 L 83 45 L 64 45 Z M 64 21 "/></clipPath><clipPath id="c9f36d6869"><path d="M -0.105469 42.171875 L 57.914062 -0.460938 L 101.4375 58.765625 L 43.417969 101.402344 Z M -0.105469 42.171875 "/></clipPath><clipPath id="e4fa068212"><path d="M -0.105469 42.171875 L 57.914062 -0.460938 L 101.4375 58.765625 L 43.417969 101.402344 Z M -0.105469 42.171875 "/></clipPath><clipPath id="7cca04f11e"><path d="M 17 27 L 39 27 L 39 52 L 17 52 Z M 17 27 "/></clipPath><clipPath id="ab9ecbd8fc"><path d="M -0.105469 42.171875 L 57.914062 -0.460938 L 101.4375 58.765625 L 43.417969 101.402344 Z M -0.105469 42.171875 "/></clipPath><clipPath id="be537ef392"><path d="M -0.105469 42.171875 L 57.914062 -0.460938 L 101.4375 58.765625 L 43.417969 101.402344 Z M -0.105469 42.171875 "/></clipPath><clipPath id="9c378501ae"><path d="M 36 13 L 59 13 L 59 37 L 36 37 Z M 36 13 "/></clipPath><clipPath id="d7483c94d9"><path d="M -0.105469 42.171875 L 57.914062 -0.460938 L 101.4375 58.765625 L 43.417969 101.402344 Z M -0.105469 42.171875 "/></clipPath><clipPath id="f2e1166660"><path d="M -0.105469 42.171875 L 57.914062 -0.460938 L 101.4375 58.765625 L 43.417969 101.402344 Z M -0.105469 42.171875 "/></clipPath><clipPath id="709f1f816f"><rect x="0" width="102" y="0" height="102"/></clipPath><clipPath id="5dbce98fc2"><path d="M 12 38 L 53 38 L 53 78 L 12 78 Z M 12 38 "/></clipPath><clipPath id="7ddbc35a0a"><path d="M 34.515625 -0.285156 L 87.121094 32.996094 L 53.039062 86.867188 L 0.433594 53.585938 Z M 34.515625 -0.285156 "/></clipPath><clipPath id="4f807fd93a"><path d="M 34.515625 -0.285156 L 87.121094 32.996094 L 53.039062 86.867188 L 0.433594 53.585938 Z M 34.515625 -0.285156 "/></clipPath><clipPath id="5aec467d65"><path d="M 16 19 L 32 19 L 32 39 L 16 39 Z M 16 19 "/></clipPath><clipPath id="39451a66b2"><path d="M 34.515625 -0.285156 L 87.121094 32.996094 L 53.039062 86.867188 L 0.433594 53.585938 Z M 34.515625 -0.285156 "/></clipPath><clipPath id="05bbdedcac"><path d="M 34.515625 -0.285156 L 87.121094 32.996094 L 53.039062 86.867188 L 0.433594 53.585938 Z M 34.515625 -0.285156 "/></clipPath><clipPath id="bc529bd85d"><path d="M 54 47 L 74 47 L 74 65 L 54 65 Z M 54 47 "/></clipPath><clipPath id="9c1345625d"><path d="M 34.515625 -0.285156 L 87.121094 32.996094 L 53.039062 86.867188 L 0.433594 53.585938 Z M 34.515625 -0.285156 "/></clipPath><clipPath id="7434f92066"><path d="M 34.515625 -0.285156 L 87.121094 32.996094 L 53.039062 86.867188 L 0.433594 53.585938 Z M 34.515625 -0.285156 "/></clipPath><clipPath id="3f2201c3dc"><path d="M 36 11 L 55 11 L 55 32 L 36 32 Z M 36 11 "/></clipPath><clipPath id="df2de8e9be"><path d="M 34.515625 -0.285156 L 87.121094 32.996094 L 53.039062 86.867188 L 0.433594 53.585938 Z M 34.515625 -0.285156 "/></clipPath><clipPath id="a5570e5b31"><path d="M 34.515625 -0.285156 L 87.121094 32.996094 L 53.039062 86.867188 L 0.433594 53.585938 Z M 34.515625 -0.285156 "/></clipPath><clipPath id="1e5edcaf07"><path d="M 54 22 L 72 22 L 72 44 L 54 44 Z M 54 22 "/></clipPath><clipPath id="123e587a05"><path d="M 34.515625 -0.285156 L 87.121094 32.996094 L 53.039062 86.867188 L 0.433594 53.585938 Z M 34.515625 -0.285156 "/></clipPath><clipPath id="fb2b10c422"><path d="M 34.515625 -0.285156 L 87.121094 32.996094 L 53.039062 86.867188 L 0.433594 53.585938 Z M 34.515625 -0.285156 "/></clipPath><clipPath id="dc32198a8d"><rect x="0" width="87" y="0" height="87"/></clipPath><clipPath id="f55fbd6708"><path d="M 41 45 L 88 45 L 88 91 L 41 91 Z M 41 45 "/></clipPath><clipPath id="817cd3e52e"><path d="M -0.644531 39.957031 L 59.738281 -0.617188 L 101.148438 61.011719 L 40.765625 101.585938 Z M -0.644531 39.957031 "/></clipPath><clipPath id="a5cb04c82b"><path d="M -0.644531 39.957031 L 59.738281 -0.617188 L 101.148438 61.011719 L 40.765625 101.585938 Z M -0.644531 39.957031 "/></clipPath><clipPath id="927ff8d4a2"><path d="M 15 54 L 37 54 L 37 76 L 15 76 Z M 15 54 "/></clipPath><clipPath id="5cd54932b9"><path d="M -0.644531 39.957031 L 59.738281 -0.617188 L 101.148438 61.011719 L 40.765625 101.585938 Z M -0.644531 39.957031 "/></clipPath><clipPath id="a96fc06de1"><path d="M -0.644531 39.957031 L 59.738281 -0.617188 L 101.148438 61.011719 L 40.765625 101.585938 Z M -0.644531 39.957031 "/></clipPath><clipPath id="ffe5b32db6"><path d="M 64 22 L 83 22 L 83 46 L 64 46 Z M 64 22 "/></clipPath><clipPath id="7d71e25add"><path d="M -0.644531 39.957031 L 59.738281 -0.617188 L 101.148438 61.011719 L 40.765625 101.585938 Z M -0.644531 39.957031 "/></clipPath><clipPath id="aeaba825b1"><path d="M -0.644531 39.957031 L 59.738281 -0.617188 L 101.148438 61.011719 L 40.765625 101.585938 Z M -0.644531 39.957031 "/></clipPath><clipPath id="6898c06293"><path d="M 17 25 L 39 25 L 39 51 L 17 51 Z M 17 25 "/></clipPath><clipPath id="5d39b79f30"><path d="M -0.644531 39.957031 L 59.738281 -0.617188 L 101.148438 61.011719 L 40.765625 101.585938 Z M -0.644531 39.957031 "/></clipPath><clipPath id="072c433438"><path d="M -0.644531 39.957031 L 59.738281 -0.617188 L 101.148438 61.011719 L 40.765625 101.585938 Z M -0.644531 39.957031 "/></clipPath><clipPath id="5bc3bb4550"><path d="M 37 12 L 60 12 L 60 37 L 37 37 Z M 37 12 "/></clipPath><clipPath id="fcfab3226b"><path d="M -0.644531 39.957031 L 59.738281 -0.617188 L 101.148438 61.011719 L 40.765625 101.585938 Z M -0.644531 39.957031 "/></clipPath><clipPath id="0e96ba9cef"><path d="M -0.644531 39.957031 L 59.738281 -0.617188 L 101.148438 61.011719 L 40.765625 101.585938 Z M -0.644531 39.957031 "/></clipPath><clipPath id="8e140c2434"><rect x="0" width="102" y="0" height="102"/></clipPath><clipPath id="fb338ec91d"><path d="M 13 44 L 58 44 L 58 91 L 13 91 Z M 13 44 "/></clipPath><clipPath id="68acdb72be"><path d="M 45.472656 -0.636719 L 102.015625 43.9375 L 56.515625 101.660156 L -0.0273438 57.085938 Z M 45.472656 -0.636719 "/></clipPath><clipPath id="dc73d8f08e"><path d="M 45.472656 -0.636719 L 102.015625 43.9375 L 56.515625 101.660156 L -0.0273438 57.085938 Z M 45.472656 -0.636719 "/></clipPath><clipPath id="833daea981"><path d="M 20 20 L 39 20 L 39 44 L 20 44 Z M 20 20 "/></clipPath><clipPath id="3fa69dfbba"><path d="M 45.472656 -0.636719 L 102.015625 43.9375 L 56.515625 101.660156 L -0.0273438 57.085938 Z M 45.472656 -0.636719 "/></clipPath><clipPath id="9614597314"><path d="M 45.472656 -0.636719 L 102.015625 43.9375 L 56.515625 101.660156 L -0.0273438 57.085938 Z M 45.472656 -0.636719 "/></clipPath><clipPath id="dad420207a"><path d="M 62 57 L 84 57 L 84 78 L 62 78 Z M 62 57 "/></clipPath><clipPath id="5138b0e3d1"><path d="M 45.472656 -0.636719 L 102.015625 43.9375 L 56.515625 101.660156 L -0.0273438 57.085938 Z M 45.472656 -0.636719 "/></clipPath><clipPath id="6d113bb818"><path d="M 45.472656 -0.636719 L 102.015625 43.9375 L 56.515625 101.660156 L -0.0273438 57.085938 Z M 45.472656 -0.636719 "/></clipPath><clipPath id="f812b9d065"><path d="M 44 14 L 67 14 L 67 38 L 44 38 Z M 44 14 "/></clipPath><clipPath id="33af7758ad"><path d="M 45.472656 -0.636719 L 102.015625 43.9375 L 56.515625 101.660156 L -0.0273438 57.085938 Z M 45.472656 -0.636719 "/></clipPath><clipPath id="7b3984d795"><path d="M 45.472656 -0.636719 L 102.015625 43.9375 L 56.515625 101.660156 L -0.0273438 57.085938 Z M 45.472656 -0.636719 "/></clipPath><clipPath id="94fdf116bc"><path d="M 63 29 L 86 29 L 86 53 L 63 53 Z M 63 29 "/></clipPath><clipPath id="517bd4b4a1"><path d="M 45.472656 -0.636719 L 102.015625 43.9375 L 56.515625 101.660156 L -0.0273438 57.085938 Z M 45.472656 -0.636719 "/></clipPath><clipPath id="07f4f05e7c"><path d="M 45.472656 -0.636719 L 102.015625 43.9375 L 56.515625 101.660156 L -0.0273438 57.085938 Z M 45.472656 -0.636719 "/></clipPath><clipPath id="7ac52ab4d2"><rect x="0" width="102" y="0" height="102"/></clipPath><clipPath id="519bdc185f"><path d="M 32 36 L 72 36 L 72 75 L 32 75 Z M 32 36 "/></clipPath><clipPath id="e9830f5559"><path d="M -0.195312 30.289062 L 51.300781 -0.5 L 82.859375 52.285156 L 31.363281 83.074219 Z M -0.195312 30.289062 "/></clipPath><clipPath id="a9d7a2f881"><path d="M -0.195312 30.289062 L 51.300781 -0.5 L 82.859375 52.285156 L 31.363281 83.074219 Z M -0.195312 30.289062 "/></clipPath><clipPath id="6e7528b083"><path d="M 12 43 L 30 43 L 30 61 L 12 61 Z M 12 43 "/></clipPath><clipPath id="323a05bb17"><path d="M -0.195312 30.289062 L 51.300781 -0.5 L 82.859375 52.285156 L 31.363281 83.074219 Z M -0.195312 30.289062 "/></clipPath><clipPath id="1680ca0642"><path d="M -0.195312 30.289062 L 51.300781 -0.5 L 82.859375 52.285156 L 31.363281 83.074219 Z M -0.195312 30.289062 "/></clipPath><clipPath id="eaaa6c4e78"><path d="M 53 19 L 69 19 L 69 39 L 53 39 Z M 53 19 "/></clipPath><clipPath id="4dd0a73cc7"><path d="M -0.195312 30.289062 L 51.300781 -0.5 L 82.859375 52.285156 L 31.363281 83.074219 Z M -0.195312 30.289062 "/></clipPath><clipPath id="309d85e564"><path d="M -0.195312 30.289062 L 51.300781 -0.5 L 82.859375 52.285156 L 31.363281 83.074219 Z M -0.195312 30.289062 "/></clipPath><clipPath id="178e190f38"><path d="M 15 19 L 33 19 L 33 41 L 15 41 Z M 15 19 "/></clipPath><clipPath id="59e62a25b8"><path d="M -0.195312 30.289062 L 51.300781 -0.5 L 82.859375 52.285156 L 31.363281 83.074219 Z M -0.195312 30.289062 "/></clipPath><clipPath id="1cf2979ab7"><path d="M -0.195312 30.289062 L 51.300781 -0.5 L 82.859375 52.285156 L 31.363281 83.074219 Z M -0.195312 30.289062 "/></clipPath><clipPath id="64716e619f"><path d="M 32 9 L 50 9 L 50 30 L 32 30 Z M 32 9 "/></clipPath><clipPath id="232dc1932a"><path d="M -0.195312 30.289062 L 51.300781 -0.5 L 82.859375 52.285156 L 31.363281 83.074219 Z M -0.195312 30.289062 "/></clipPath><clipPath id="e96edbec49"><path d="M -0.195312 30.289062 L 51.300781 -0.5 L 82.859375 52.285156 L 31.363281 83.074219 Z M -0.195312 30.289062 "/></clipPath><clipPath id="3e87c41efe"><rect x="0" width="83" y="0" height="83"/></clipPath><clipPath id="f9d2cb9745"><path d="M 233 0 L 1350 0 L 1350 686.132812 L 233 686.132812 Z M 233 0 "/></clipPath><clipPath id="1226bc96ee"><path d="M 207 132 L 261 132 L 261 169 L 207 169 Z M 207 132 "/></clipPath><clipPath id="30f10e9834"><path d="M 302.761719 176.160156 L 192.453125 286.46875 L 97.523438 191.539062 L 207.832031 81.230469 Z M 302.761719 176.160156 "/></clipPath><clipPath id="de82cb483c"><path d="M 302.761719 176.160156 L 192.453125 286.46875 L 97.523438 191.539062 L 207.832031 81.230469 Z M 302.761719 176.160156 "/></clipPath><clipPath id="43e025ebef"><path d="M 217 173 L 267 173 L 267 216 L 217 216 Z M 217 173 "/></clipPath><clipPath id="1fd376076f"><path d="M 302.761719 176.160156 L 192.453125 286.46875 L 97.523438 191.539062 L 207.832031 81.230469 Z M 302.761719 176.160156 "/></clipPath><clipPath id="fa9ab17c53"><path d="M 302.761719 176.160156 L 192.453125 286.46875 L 97.523438 191.539062 L 207.832031 81.230469 Z M 302.761719 176.160156 "/></clipPath><clipPath id="66f729b6a4"><path d="M 148 190 L 186 190 L 186 244 L 148 244 Z M 148 190 "/></clipPath><clipPath id="c3d40c62f2"><path d="M 302.761719 176.160156 L 192.453125 286.46875 L 97.523438 191.539062 L 207.832031 81.230469 Z M 302.761719 176.160156 "/></clipPath><clipPath id="035fe8cfd2"><path d="M 302.761719 176.160156 L 192.453125 286.46875 L 97.523438 191.539062 L 207.832031 81.230469 Z M 302.761719 176.160156 "/></clipPath><clipPath id="fc857c9cf2"><path d="M 190 200 L 232 200 L 232 250 L 190 250 Z M 190 200 "/></clipPath><clipPath id="899dd2ab84"><path d="M 302.761719 176.160156 L 192.453125 286.46875 L 97.523438 191.539062 L 207.832031 81.230469 Z M 302.761719 176.160156 "/></clipPath><clipPath id="e6328d859b"><path d="M 302.761719 176.160156 L 192.453125 286.46875 L 97.523438 191.539062 L 207.832031 81.230469 Z M 302.761719 176.160156 "/></clipPath><clipPath id="b18369cc78"><path d="M 134 119 L 208 119 L 208 193 L 134 193 Z M 134 119 "/></clipPath><clipPath id="101d37bec0"><path d="M 302.761719 176.160156 L 192.453125 286.46875 L 97.523438 191.539062 L 207.832031 81.230469 Z M 302.761719 176.160156 "/></clipPath><clipPath id="4f4df9b7c6"><path d="M 302.761719 176.160156 L 192.453125 286.46875 L 97.523438 191.539062 L 207.832031 81.230469 Z M 302.761719 176.160156 "/></clipPath><clipPath id="cb7021068c"><path d="M 1254 597 L 1298 597 L 1298 626 L 1254 626 Z M 1254 597 "/></clipPath><clipPath id="30944fd1e2"><path d="M 1219.96875 594.058594 L 1303.058594 501.34375 L 1382.929688 572.921875 L 1299.839844 665.636719 Z M 1219.96875 594.058594 "/></clipPath><clipPath id="a3eb6f707c"><path d="M 1219.96875 594.058594 L 1303.058594 501.34375 L 1382.929688 572.921875 L 1299.839844 665.636719 Z M 1219.96875 594.058594 "/></clipPath><clipPath id="aae60683c3"><path d="M 1247 560 L 1288 560 L 1288 593 L 1247 593 Z M 1247 560 "/></clipPath><clipPath id="ee92798d25"><path d="M 1219.96875 594.058594 L 1303.058594 501.34375 L 1382.929688 572.921875 L 1299.839844 665.636719 Z M 1219.96875 594.058594 "/></clipPath><clipPath id="0008ebf042"><path d="M 1219.96875 594.058594 L 1303.058594 501.34375 L 1382.929688 572.921875 L 1299.839844 665.636719 Z M 1219.96875 594.058594 "/></clipPath><clipPath id="723b3a8576"><path d="M 1311 534 L 1342 534 L 1342 577 L 1311 577 Z M 1311 534 "/></clipPath><clipPath id="7328e543f8"><path d="M 1219.96875 594.058594 L 1303.058594 501.34375 L 1382.929688 572.921875 L 1299.839844 665.636719 Z M 1219.96875 594.058594 "/></clipPath><clipPath id="50f05ff9f6"><path d="M 1219.96875 594.058594 L 1303.058594 501.34375 L 1382.929688 572.921875 L 1299.839844 665.636719 Z M 1219.96875 594.058594 "/></clipPath><clipPath id="930eabd974"><path d="M 1274 531 L 1308 531 L 1308 571 L 1274 571 Z M 1274 531 "/></clipPath><clipPath id="33c90bd320"><path d="M 1219.96875 594.058594 L 1303.058594 501.34375 L 1382.929688 572.921875 L 1299.839844 665.636719 Z M 1219.96875 594.058594 "/></clipPath><clipPath id="ed1468ae41"><path d="M 1219.96875 594.058594 L 1303.058594 501.34375 L 1382.929688 572.921875 L 1299.839844 665.636719 Z M 1219.96875 594.058594 "/></clipPath><clipPath id="ac470a43f2"><path d="M 1296 576 L 1355 576 L 1355 635 L 1296 635 Z M 1296 576 "/></clipPath><clipPath id="801733e9d6"><path d="M 1219.96875 594.058594 L 1303.058594 501.34375 L 1382.929688 572.921875 L 1299.839844 665.636719 Z M 1219.96875 594.058594 "/></clipPath><clipPath id="f46dce8a71"><path d="M 1219.96875 594.058594 L 1303.058594 501.34375 L 1382.929688 572.921875 L 1299.839844 665.636719 Z M 1219.96875 594.058594 "/></clipPath><clipPath id="58b59e0b59"><path d="M 1063 261 L 1106 261 L 1106 291 L 1063 291 Z M 1063 261 "/></clipPath><clipPath id="00d74d2049"><path d="M 1028.347656 258.609375 L 1111.441406 165.894531 L 1191.308594 237.472656 L 1108.21875 330.1875 Z M 1028.347656 258.609375 "/></clipPath><clipPath id="7895f1caa0"><path d="M 1028.347656 258.609375 L 1111.441406 165.894531 L 1191.308594 237.472656 L 1108.21875 330.1875 Z M 1028.347656 258.609375 "/></clipPath><clipPath id="6e68453e12"><path d="M 1056 225 L 1097 225 L 1097 258 L 1056 258 Z M 1056 225 "/></clipPath><clipPath id="df1415185d"><path d="M 1028.347656 258.609375 L 1111.441406 165.894531 L 1191.308594 237.472656 L 1108.21875 330.1875 Z M 1028.347656 258.609375 "/></clipPath><clipPath id="2c9f3d7abe"><path d="M 1028.347656 258.609375 L 1111.441406 165.894531 L 1191.308594 237.472656 L 1108.21875 330.1875 Z M 1028.347656 258.609375 "/></clipPath><clipPath id="c430cf63df"><path d="M 1120 198 L 1150 198 L 1150 242 L 1120 242 Z M 1120 198 "/></clipPath><clipPath id="b9a03d7c2b"><path d="M 1028.347656 258.609375 L 1111.441406 165.894531 L 1191.308594 237.472656 L 1108.21875 330.1875 Z M 1028.347656 258.609375 "/></clipPath><clipPath id="dc67636187"><path d="M 1028.347656 258.609375 L 1111.441406 165.894531 L 1191.308594 237.472656 L 1108.21875 330.1875 Z M 1028.347656 258.609375 "/></clipPath><clipPath id="e0fcb642f2"><path d="M 1082 196 L 1117 196 L 1117 235 L 1082 235 Z M 1082 196 "/></clipPath><clipPath id="9b2b5a009f"><path d="M 1028.347656 258.609375 L 1111.441406 165.894531 L 1191.308594 237.472656 L 1108.21875 330.1875 Z M 1028.347656 258.609375 "/></clipPath><clipPath id="f81dfa496b"><path d="M 1028.347656 258.609375 L 1111.441406 165.894531 L 1191.308594 237.472656 L 1108.21875 330.1875 Z M 1028.347656 258.609375 "/></clipPath><clipPath id="8835a3e489"><path d="M 1104 240 L 1164 240 L 1164 299 L 1104 299 Z M 1104 240 "/></clipPath><clipPath id="17e75806b0"><path d="M 1028.347656 258.609375 L 1111.441406 165.894531 L 1191.308594 237.472656 L 1108.21875 330.1875 Z M 1028.347656 258.609375 "/></clipPath><clipPath id="fb5d82160e"><path d="M 1028.347656 258.609375 L 1111.441406 165.894531 L 1191.308594 237.472656 L 1108.21875 330.1875 Z M 1028.347656 258.609375 "/></clipPath></defs><g id="50ae614440"><rect x="0" width="1440" y="0" height="809.999993" style="fill:#ffffff;fill-opacity:1;stroke:none;"/><rect x="0" width="1440" y="0" height="809.999993" style="fill:url(#f83f7b1fd6);stroke:none;"/></g></svg>