<svg width="450" height="420" viewBox="0 0 450 420" fill="none" xmlns="http://www.w3.org/2000/svg">
<path d="M270 69.9999C270.96 70.1662 271.919 70.3325 272.908 70.5038C284.023 72.5111 294.749 75.3504 305.438 78.9999C306.379 79.3198 307.32 79.6398 308.29 79.9694C314.811 82.3018 321.043 85.0433 326 89.9999C326.215 93.0535 326.304 96.0175 326.306 99.0734C326.315 100.015 326.323 100.957 326.332 101.928C326.356 105.062 326.365 108.197 326.371 111.332C326.38 113.521 326.389 115.71 326.398 117.899C326.415 122.506 326.423 127.114 326.426 131.722C326.431 137.569 326.468 143.416 326.514 149.264C326.544 153.798 326.551 158.333 326.552 162.867C326.556 165.019 326.569 167.17 326.59 169.321C326.891 202.749 316.31 228.902 293.148 252.883C278.447 267.658 261.319 279.294 242.931 288.975C241.249 289.868 239.585 290.796 237.926 291.73C237.084 292.191 236.242 292.651 235.375 293.125C234.702 293.499 234.029 293.873 233.336 294.258C227.991 295.956 223.638 295.548 218.66 293.199C217.117 292.381 215.585 291.543 214.062 290.687C213.24 290.238 212.417 289.789 211.57 289.326C193.871 279.512 177.735 267.878 163 254C161.805 252.919 161.805 252.919 160.586 251.816C143.294 235.54 129.068 211.125 127.899 186.908C127.849 184.406 127.831 181.905 127.823 179.402C127.816 178.453 127.81 177.505 127.803 176.527C127.783 173.402 127.772 170.277 127.762 167.152C127.758 166.083 127.754 165.013 127.749 163.911C127.729 158.258 127.714 152.605 127.705 146.952C127.694 141.112 127.659 135.272 127.62 129.433C127.594 124.94 127.585 120.447 127.582 115.954C127.577 113.801 127.565 111.648 127.547 109.494C127.522 106.485 127.523 103.477 127.53 100.468C127.517 99.5794 127.504 98.6905 127.491 97.7746C127.526 93.6921 127.66 91.5484 129.855 88.0075C160.07 59.7244 232.486 63.46 270 69.9999ZM143 97.9999C142.93 109.215 142.877 120.429 142.845 131.644C142.829 136.853 142.808 142.062 142.774 147.271C142.741 152.309 142.723 157.347 142.715 162.385C142.71 164.295 142.699 166.206 142.683 168.117C142.441 197.586 151.332 219.686 171.832 240.855C183.302 252.374 196.271 261.359 210 270C210.794 270.503 211.588 271.007 212.407 271.526C214.568 272.879 216.745 274.197 218.938 275.5C219.885 276.088 219.885 276.088 220.851 276.688C223.846 278.402 225.531 279.083 228.969 278.473C232.566 276.725 236.089 274.919 239.562 272.937C240.265 272.537 240.968 272.138 241.691 271.725C271.78 254.351 299.383 230.14 309.309 195.867C310.752 189.88 311.141 184.275 311.114 178.149C311.114 176.845 311.114 176.845 311.114 175.516C311.113 172.659 311.106 169.802 311.098 166.945C311.096 164.958 311.094 162.972 311.093 160.985C311.09 155.767 311.08 150.549 311.069 145.331C311.058 140.002 311.054 134.673 311.049 129.344C311.038 118.896 311.021 108.448 311 97.9999C309.108 97.1985 307.215 96.4004 305.321 95.6037C304.267 95.1589 303.213 94.7141 302.127 94.2558C297.743 92.4953 293.31 91.1545 288.75 89.9374C287.818 89.6877 286.886 89.438 285.926 89.1808C268.526 84.6793 250.966 82.2367 233 81.9999C232.083 81.9874 231.166 81.9749 230.222 81.9621C201.287 81.76 169.309 84.8452 143 97.9999Z" fill="#FEFEFE"/>
<path d="M243 153C246.581 155.767 249.793 158.813 253 162C254.18 163.141 254.18 163.141 255.383 164.305C281.191 189.587 281.191 189.587 281.625 207.312C281.555 217.342 278.094 224.911 271.375 232.375C259.313 243.382 244.675 244.356 229.082 244.261C227.002 244.25 224.924 244.261 222.844 244.273C207.863 244.291 193.95 242.891 182.563 232.187C174.582 223.525 172.486 215.381 172.731 203.82C173.938 186.7 189.691 173.483 201 162C201.509 161.48 202.019 160.96 202.543 160.424C213.734 149.149 228.47 144.324 243 153ZM217 174C216.693 176.907 216.489 179.712 216.375 182.625C216.251 185.389 216.128 188.152 216 191C207.585 191.495 207.585 191.495 199 192C199 198.27 199 204.54 199 211C204.61 211.33 210.22 211.66 216 212C216.438 219.875 216.438 219.875 216.568 222.351C216.736 226.305 216.736 226.305 218 230C220.874 230.511 220.874 230.511 224.25 230.687C225.39 230.774 226.529 230.86 227.703 230.949C230.701 230.995 233.135 230.863 236 230C237.489 227.023 237.054 224.307 237 221C236.889 214.222 236.889 214.222 238 212C246.415 211.505 246.415 211.505 255 211C256.587 207.826 256.143 204.418 256.125 200.937C256.129 200.192 256.133 199.446 256.137 198.678C256.472 195.041 256.472 195.041 255 192C252.141 191.763 249.301 191.578 246.438 191.437C245.631 191.394 244.825 191.351 243.994 191.307C241.996 191.2 239.998 191.1 238 191C236.858 186.797 237.011 182.992 237.16 178.656C236.994 175.902 236.409 174.342 235 172C232.375 171.946 229.751 171.906 227.125 171.875C226.006 171.85 226.006 171.85 224.863 171.824C220.464 171.599 220.464 171.599 217 174Z" fill="#FEFEFE"/>
<path d="M220 316.531C225.393 320.492 230.012 325.536 232 332C232.125 334.812 232.125 334.812 232 337C227.578 337.466 223.403 337.719 219 337C217.006 335.105 216.124 333.39 214.961 330.914C214.092 328.772 214.092 328.772 211.625 327.5C205.602 326.353 201.185 326.544 196 330C190.742 336.679 190.37 342.72 191 351C191.91 355.321 193.307 358.341 196.562 361.437C201.381 364.527 205.357 364.463 211 364C214.02 363.206 214.02 363.206 216 361C217.28 358.361 218.122 355.818 219 353C214.71 353 210.42 353 206 353C206 350.03 206 347.06 206 344C209.679 342.161 210.818 341.745 214.66 341.734C215.974 341.73 215.974 341.73 217.314 341.727C218.221 341.734 219.128 341.742 220.062 341.75C221.429 341.738 221.429 341.738 222.822 341.727C223.697 341.729 224.572 341.732 225.473 341.734C226.269 341.737 227.066 341.739 227.887 341.741C230 342 230 342 233 344C234.17 350.711 233.258 358.009 230 364C226.21 369.276 221.917 374.86 215.426 376.668C203.876 378.249 195.294 377.357 185.75 370.75C178.254 363.254 175.956 355.492 175.688 345.062C175.887 334.656 178.661 327.514 186 320C195.248 312.754 209.386 310.902 220 316.531Z" fill="#FEFEFE"/>
<path d="M395.062 314.375C395.961 314.465 396.859 314.555 397.785 314.648C400 315 400 315 401 316C401.099 317.8 401.128 319.603 401.129 321.406C401.133 322.561 401.136 323.715 401.139 324.905C401.137 326.162 401.135 327.419 401.133 328.715C401.134 329.996 401.135 331.277 401.136 332.597C401.137 335.313 401.135 338.03 401.13 340.746C401.125 344.231 401.128 347.716 401.134 351.201C401.138 354.518 401.135 357.835 401.133 361.152C401.135 362.408 401.137 363.663 401.139 364.956C401.134 366.693 401.134 366.693 401.129 368.465C401.129 369.487 401.128 370.51 401.127 371.564C401 374 401 374 400 376C398.952 375.988 397.904 375.977 396.824 375.965C395.445 375.955 394.066 375.946 392.688 375.937C391.652 375.925 391.652 375.925 390.596 375.912C387.452 375.897 385.006 375.998 382 377C375.332 377.552 369.802 377.481 364 374C357.799 367.94 355.843 361.678 355.5 353.125C355.675 345.686 357.459 339.921 362.492 334.348C366.666 330.617 370.318 329.165 375.812 328.625C380 329 380 329 388 333C388 327.06 388 321.12 388 315C390.601 313.699 392.187 314.069 395.062 314.375ZM372 343C369.093 348.192 368.427 352.084 369 358C370.396 360.919 371.722 362.722 374 365C377.018 366.006 378.968 366.005 382.125 365.5C385.337 363.824 386.341 362.404 387.531 358.996C388.654 354.213 388.495 350.274 386.688 345.625C385.108 342.783 385.108 342.783 382 341C378.155 340.673 375.091 340.549 372 343Z" fill="#FEFEFE"/>
<path d="M53 316C57.29 316 61.58 316 66 316C68.9242 321.315 70.6579 326.84 72.4375 332.625C73.0186 334.493 73.6007 336.36 74.1836 338.227C74.6184 339.621 74.6184 339.621 75.062 341.044C76.65 346.049 78.3235 351.025 80 356C80.2872 355.103 80.5744 354.206 80.8704 353.281C81.9479 349.919 83.0272 346.557 84.1077 343.195C84.5729 341.746 85.0374 340.297 85.5012 338.848C92.2577 317.742 92.2577 317.742 94 316C96.1864 315.927 98.375 315.916 100.562 315.938C102.359 315.951 102.359 315.951 104.191 315.965C105.118 315.977 106.045 315.988 107 316C108.395 320.186 106.791 322.993 105.281 326.938C104.986 327.732 104.69 328.526 104.386 329.344C103.432 331.899 102.467 334.45 101.5 337C100.569 339.483 99.641 341.968 98.7129 344.452C98.0913 346.11 97.4663 347.767 96.8379 349.423C95.1989 353.747 93.6137 358.081 92.1094 362.453C91.8022 363.331 91.4951 364.209 91.1786 365.114C90.5922 366.796 90.0184 368.482 89.4591 370.174C88.6582 372.449 88.6582 372.449 87 376C82.4235 377.719 77.7306 376.56 73 376C70.2192 369.17 67.6019 362.296 65.1094 355.356C64.7599 354.383 64.4104 353.41 64.0504 352.408C63.3199 350.37 62.5905 348.332 61.8623 346.294C61.1171 344.213 60.3684 342.133 59.6162 340.054C58.5229 337.032 57.44 334.007 56.3594 330.981C56.0219 330.053 55.6845 329.126 55.3369 328.171C55.0294 327.303 54.722 326.434 54.4053 325.54C54.1331 324.782 53.8609 324.024 53.5805 323.242C53 321 53 321 53 316Z" fill="#FEFEFE"/>
<path d="M318 332C321.596 335.363 323.941 338.436 324.129 343.424C324.136 344.888 324.137 346.352 324.133 347.816C324.134 348.588 324.135 349.36 324.136 350.155C324.136 351.786 324.134 353.418 324.13 355.05C324.125 357.556 324.13 360.062 324.137 362.568C324.136 364.151 324.135 365.734 324.133 367.316C324.135 368.071 324.137 368.825 324.139 369.602C324.115 374.885 324.115 374.885 323 376C321.147 376.072 319.291 376.084 317.437 376.063C316.425 376.054 315.413 376.045 314.371 376.035C313.197 376.018 313.197 376.018 312 376C312 375.34 312 374.68 312 374C311.03 374.495 310.061 374.99 309.062 375.5C303.303 377.944 298.148 377.68 292.25 375.813C288.631 373.794 286.439 372.372 284 369C282.677 363.751 282.252 358.85 285 354C285.66 354 286.32 354 287 354C287 353.34 287 352.68 287 352C294.44 347.768 301.547 347.241 310 347C309.655 344.527 309.655 344.527 309 342C306.201 340.601 304.095 340.747 301 341C299.25 342.25 299.25 342.25 298 344C296.269 346.14 295.515 346.933 292.738 347.293C291.938 347.258 291.137 347.223 290.312 347.188C289.504 347.16 288.696 347.133 287.863 347.106C287.248 347.071 286.633 347.036 286 347C284.93 345.219 284.93 345.219 284 343C285.478 338.401 287.123 334.934 291 332C299.372 327.888 309.749 326.93 318 332ZM303.5 357.375C302.726 357.445 301.953 357.514 301.156 357.586C298.714 357.91 298.714 357.91 296 360C295.75 362.584 295.75 362.584 296 365C299.829 366.379 302.281 367.149 306.312 366.313C309.263 365.151 309.263 365.151 311 362C311.167 359.375 311.167 359.375 311 357C308.455 357 306.029 357.131 303.5 357.375Z" fill="#FEFEFE"/>
<path d="M132.391 329.906C138.451 333.515 142.705 338.272 145 345C145.449 347.824 145.449 347.824 145.688 350.687C145.774 351.64 145.86 352.593 145.949 353.574C146 356 146 356 145 358C135.43 358.33 125.86 358.66 116 359C118.323 363.885 118.323 363.885 121 365C122.54 365.069 124.083 365.084 125.625 365.062C126.851 365.049 126.851 365.049 128.102 365.035C128.728 365.023 129.355 365.012 130 365C130 364.01 130 363.02 130 362C132.765 360.618 135.046 360.905 138.125 360.937C139.221 360.946 140.316 360.955 141.445 360.965C142.71 360.982 142.71 360.982 144 361C144 364.824 143.859 366.975 141.363 369.953C135.459 375.307 130.278 377.464 122.301 377.25C115.697 376.532 110.642 373.747 106 369C100.686 362.349 101.121 354.111 102 346C103.997 338.974 109.007 333.996 115 330C120.483 328.172 126.931 327.836 132.391 329.906ZM116 345C115.67 345.99 115.34 346.98 115 348C120.61 348 126.22 348 132 348C131.498 343.217 131.498 343.217 129.313 341.187C123.329 338.115 120.011 340.072 116 345Z" fill="#FEFEFE"/>
<path d="M241.469 329.867C242.969 329.871 242.969 329.871 244.5 329.875C245.5 329.872 246.5 329.87 247.531 329.867C250 330 250 330 251 331C251.11 333.171 251.156 335.346 251.176 337.52C251.199 338.865 251.223 340.211 251.248 341.557C251.283 343.683 251.312 345.809 251.326 347.936C251.341 349.985 251.381 352.033 251.426 354.082C251.44 355.312 251.455 356.541 251.47 357.808C251.761 361.066 251.761 361.066 253.809 363.436C256.043 365.359 256.043 365.359 259.625 364.938C263.255 364.325 263.255 364.325 265 361C265.337 357.93 265.337 357.93 265.344 354.434C265.388 352.499 265.388 352.499 265.433 350.525C265.468 348.476 265.5 346.426 265.532 344.376C265.565 342.395 265.61 340.414 265.656 338.434C265.675 337.248 265.693 336.063 265.713 334.842C266 332 266 332 268 330C270.094 329.77 270.094 329.77 272.5 329.813C273.294 329.819 274.088 329.825 274.906 329.832C277 330 277 330 279 331C279 345.85 279 360.7 279 376C269 377 269 377 267 376C267 375.34 267 374.68 267 374C265.845 374.495 264.69 374.99 263.5 375.5C257.735 377.635 253.269 377.731 247.312 375.813C243.298 373.616 240.078 371.156 238 367C237.901 364.313 237.86 361.652 237.867 358.965C237.866 358.171 237.865 357.377 237.864 356.559C237.863 354.881 237.865 353.202 237.869 351.523C237.875 348.944 237.869 346.366 237.863 343.787C237.864 342.159 237.865 340.531 237.867 338.902C237.865 338.126 237.863 337.35 237.861 336.551C237.889 330.06 237.889 330.06 241.469 329.867Z" fill="#FEFEFE"/>
<path d="M211.336 99.0312C217.156 102.511 220.542 106.691 223 113C224.93 120.955 224.636 128.579 221 136C218.252 140.041 215.578 143.11 211 145C206.204 145.543 202.813 145.027 198.699 142.383C191.906 136.854 188.862 129.429 187.719 120.902C187.409 114.414 189.394 108.547 192.812 103.125C198.097 97.9913 204.461 95.9962 211.336 99.0312Z" fill="#FEFEFE"/>
<path d="M253 98C259.006 101.062 262.981 105.314 265.375 111.625C267.074 120.152 265.826 128.762 261 136C258.043 140.357 255.028 143.19 250 145C245.737 145.533 243.626 145.331 239.813 143.313C233.446 138.078 230.648 132.416 229.676 124.289C229.348 116.216 231.507 110.037 236.375 103.625C241.249 98.7516 246.203 96.7878 253 98Z" fill="#FEFEFE"/>
<path d="M289 131C292.478 133.894 294.857 137.635 296 142C296.686 150.237 295.015 156.94 289.687 163.375C285.435 167.832 281.721 170.094 275.5 170.437C271.015 170.271 268.413 169.007 265 166C261.362 161.484 260.719 156.433 261.18 150.801C262.36 143.899 265.536 137.798 271.031 133.359C277.13 129.399 281.988 127.933 289 131Z" fill="#FEFEFE"/>
<path d="M177 130C183.859 132.533 187.611 137.738 191 144C192.915 149.745 193.217 157.364 191.281 163.148C189.21 166.439 186.564 168.574 183 170C178.107 170.844 174.16 170.465 169.813 168C163.484 163.528 159.37 157.671 158 150C157.378 144.303 158.121 140.087 161 135C165.689 129.625 170.001 128.689 177 130Z" fill="#FEFEFE"/>
<path d="M154.688 318.867C155.781 318.87 156.874 318.872 158 318.875C159.093 318.872 160.186 318.87 161.313 318.867C164 319 164 319 165 320C165.072 321.853 165.084 323.708 165.063 325.562C165.054 326.574 165.045 327.586 165.035 328.629C165.024 329.411 165.012 330.194 165 331C166.671 330.722 166.671 330.722 168.375 330.438C172 330 172 330 174 331C174 334.3 174 337.6 174 341C171.03 341.33 168.06 341.66 165 342C165 349.59 165 357.18 165 365C167.64 365 170.28 365 173 365C174 366 174 366 174.098 368.285C174.086 369.202 174.075 370.118 174.063 371.062C174.054 371.982 174.045 372.901 174.035 373.848C174.024 374.558 174.012 375.268 174 376C169.982 378.009 165.02 377.474 160.734 376.469C156.762 375.115 153.957 373.913 152 370C151.105 366.366 150.882 362.997 150.902 359.262C150.906 358.195 150.909 357.128 150.912 356.029C150.921 354.927 150.929 353.824 150.938 352.688C150.942 351.565 150.947 350.443 150.951 349.287C150.963 346.525 150.979 343.762 151 341C149.68 341.33 148.36 341.66 147 342C144.551 338.327 144.685 336.336 145 332C145.66 331.34 146.32 330.68 147 330C148.32 330 149.64 330 151 330C150.988 329.29 150.977 328.579 150.965 327.848C150.951 326.469 150.951 326.469 150.938 325.062C150.926 324.146 150.914 323.229 150.902 322.285C151.045 318.958 151.334 319.033 154.688 318.867Z" fill="#FEFEFE"/>
<path d="M356 329C357.13 334.023 356.779 337.979 356 343C352.04 343.66 348.08 344.32 344 345C343.219 348.904 342.9 351.747 342.973 355.633C342.985 356.686 342.997 357.739 343.01 358.824C343.045 361.033 343.084 363.241 343.127 365.449C343.138 366.5 343.149 367.55 343.16 368.633C343.177 369.591 343.194 370.549 343.211 371.536C343 374 343 374 341 377C337.37 376.67 333.74 376.34 330 376C329.314 372.57 328.876 370.119 328.886 366.76C328.886 365.96 328.887 365.16 328.887 364.335C328.892 363.486 328.897 362.637 328.902 361.762C328.904 360.881 328.905 360 328.907 359.093C328.912 356.291 328.925 353.489 328.937 350.687C328.942 348.783 328.947 346.879 328.951 344.975C328.962 340.316 328.979 335.658 329 331C331.468 329.766 333.247 329.798 336 329.75C336.887 329.724 337.774 329.698 338.687 329.672C339.451 329.78 340.214 329.888 341 330C341.66 330.99 342.32 331.98 343 333C344.031 332.34 345.062 331.68 346.125 331C349.536 329.027 352.02 328.612 356 329Z" fill="#FEFEFE"/>
<path d="M54 317C57.96 317 61.92 317 66 317C70.7289 332.315 75.4229 347.639 80 363C80.281 362.385 80.562 361.77 80.8516 361.137C82.7434 357.617 85.5264 355.478 89.3125 354.25C89.8694 354.167 90.4263 354.085 91 354C92.0154 357.113 92.0042 358.813 90.8203 361.855C90.5509 362.56 90.2815 363.264 90.0039 363.99C89.7139 364.715 89.4238 365.44 89.125 366.188C88.8427 366.924 88.5604 367.661 88.2695 368.42C86.1687 373.831 86.1687 373.831 85 375C83.1471 375.072 81.2917 375.084 79.4375 375.062C78.4256 375.053 77.4137 375.044 76.3711 375.035C75.1974 375.018 75.1974 375.018 74 375C70.7315 366.746 67.7168 358.426 64.814 350.038C63.1762 345.319 61.5018 340.617 59.7734 335.93C59.4052 334.93 59.0369 333.93 58.6575 332.9C57.9387 330.955 57.216 329.012 56.489 327.071C56.0014 325.75 56.0014 325.75 55.5039 324.402C55.2133 323.624 54.9227 322.845 54.6233 322.043C54 320 54 320 54 317Z" fill="#FEFEFE"/>
<path d="M132.391 329.906C138.451 333.515 142.705 338.272 145 345C145.449 347.824 145.449 347.824 145.688 350.687C145.774 351.64 145.86 352.593 145.949 353.574C146 356 146 356 145 358C135.43 358.33 125.86 358.66 116 359C118.323 363.885 118.323 363.885 121 365C122.54 365.069 124.083 365.084 125.625 365.062C126.851 365.049 126.851 365.049 128.102 365.035C128.728 365.023 129.355 365.012 130 365C130 364.01 130 363.02 130 362C132.765 360.618 135.046 360.905 138.125 360.937C139.221 360.946 140.316 360.955 141.445 360.965C142.71 360.982 142.71 360.982 144 361C144 364.824 143.859 366.975 141.363 369.953C135.459 375.307 130.278 377.464 122.301 377.25C115.697 376.532 110.642 373.747 106 369C100.686 362.349 101.121 354.111 102 346C103.997 338.974 109.007 333.996 115 330C120.483 328.172 126.931 327.836 132.391 329.906ZM107 338.437C103.183 344.722 102.146 350.733 103 358C104.732 364.782 107.122 369.162 113 373C119.054 375.953 125.413 375.627 132 375C136.518 372.897 139.22 370.118 142 366C142.372 364.677 142.712 363.344 143 362C139.637 361.769 136.357 361.637 133 362C131.646 363.313 130.312 364.646 129 366C124.992 366.712 121.353 366.605 117.625 364.937C115.313 362.181 114.269 359.364 113 356C114.65 356 116.3 356 118 356C118.33 354.35 118.66 352.7 119 351C116.525 350.01 116.525 350.01 114 349C116.75 342.25 116.75 342.25 119 340C122.797 339.279 126.529 339.143 129.926 341.121C131.563 342.5 131.563 342.5 134 345C134.124 343.886 134.248 342.772 134.375 341.625C135 338 135 338 137 336C133.077 331.641 130.124 330.252 124.313 329.562C117.571 329.767 111.059 333.049 107 338.437ZM116 345C115.67 345.99 115.34 346.98 115 348C120.61 348 126.22 348 132 348C131.498 343.217 131.498 343.217 129.313 341.187C123.329 338.115 120.011 340.072 116 345Z" fill="#FEFEFE"/>
<path d="M178 247C181.923 248.676 184.983 251.323 188.25 254C195.76 260.03 203.747 265.06 212 270C213.067 270.646 214.135 271.292 215.234 271.957C217.484 273.314 219.738 274.663 222 276C221.01 276.495 221.01 276.495 220 277C217.64 276.064 215.304 275.067 213 274C212.917 274.577 212.835 275.155 212.75 275.75C211.784 278.647 210.273 280.003 208 282C207.01 282.495 207.01 282.495 206 283C208.863 284.688 211.742 286.346 214.625 288C215.837 288.715 215.837 288.715 217.074 289.445C223.149 292.983 223.149 292.983 230 293C233.045 291.782 235.882 290.273 238.75 288.688C239.576 288.24 240.402 287.793 241.254 287.333C253.775 280.48 266.229 273.445 277 264C277.66 264.33 278.32 264.66 279 265C266.932 275.938 252.585 284.31 238.188 291.812C237.573 292.144 236.959 292.475 236.325 292.817C231.923 295.016 227.838 295.874 223 295C219.843 293.86 216.985 292.33 214.062 290.688C213.243 290.24 212.423 289.793 211.578 289.333C199.37 282.57 187.609 275.097 177 266C180.282 266 180.826 266.331 183.355 268.188C183.977 268.639 184.599 269.09 185.24 269.555C185.883 270.032 186.525 270.509 187.188 271C187.842 271.477 188.496 271.954 189.17 272.445C190.785 273.624 192.393 274.811 194 276C194.33 275.34 194.66 274.68 195 274C194.01 274 193.02 274 192 274C192 273.34 192 272.68 192 272C201.217 268 201.217 268 204 268C203.298 267.518 203.298 267.518 202.582 267.025C183.905 254.14 183.905 254.14 178 248C178 247.67 178 247.34 178 247Z" fill="#FEFEFE"/>
<path d="M224.072 169.727C225.243 169.738 225.243 169.738 226.438 169.75C227.602 169.738 227.602 169.738 228.791 169.727C232.701 169.74 234.679 169.786 238 172C238.432 173.879 238.432 173.879 238.512 176.133C238.547 176.939 238.583 177.744 238.619 178.574C238.653 179.837 238.653 179.837 238.688 181.125C238.722 181.975 238.756 182.824 238.791 183.699C238.874 185.799 238.938 187.9 239 190C240.216 190.061 241.431 190.121 242.684 190.184C244.268 190.268 245.853 190.353 247.438 190.438C248.24 190.477 249.042 190.516 249.869 190.557C255.887 190.887 255.887 190.887 257 192C257.099 193.404 257.131 194.812 257.133 196.219C257.135 197.493 257.135 197.493 257.137 198.793C257.133 199.686 257.129 200.58 257.125 201.5C257.131 202.84 257.131 202.84 257.137 204.207C257.135 205.057 257.134 205.906 257.133 206.781C257.132 207.566 257.131 208.35 257.129 209.158C257 211 257 211 256 212C253.141 212.237 250.301 212.422 247.438 212.563C246.631 212.606 245.825 212.649 244.994 212.693C242.996 212.8 240.998 212.9 239 213C238.951 214.204 238.902 215.408 238.852 216.649C238.777 218.224 238.701 219.8 238.625 221.375C238.579 222.566 238.579 222.566 238.531 223.781C238.227 229.774 238.227 229.774 236 232C234.029 232.227 234.029 232.227 231.648 232.195C230.798 232.189 229.947 232.182 229.07 232.176C228.181 232.159 227.291 232.142 226.375 232.125C225.029 232.112 225.029 232.112 223.656 232.098C221.437 232.074 219.219 232.041 217 232C215.35 228.7 215.617 225.009 215.438 221.375C215.394 220.573 215.351 219.771 215.307 218.945C215.2 216.964 215.1 214.982 215 213C213.784 212.939 212.569 212.879 211.316 212.816C209.732 212.732 208.147 212.647 206.562 212.563C205.76 212.523 204.958 212.484 204.131 212.443C198.113 212.113 198.113 212.113 197 211C196.723 207.863 196.768 204.711 196.75 201.563C196.729 200.678 196.709 199.793 196.688 198.881C196.682 198.035 196.677 197.188 196.672 196.316C196.663 195.537 196.653 194.758 196.644 193.955C196.761 193.31 196.879 192.665 197 192C200.792 189.472 203.809 189.776 208.188 189.875C208.937 189.884 209.687 189.893 210.459 189.902C212.306 189.926 214.153 189.962 216 190C215.977 188.724 215.954 187.448 215.93 186.133C215.911 184.464 215.893 182.794 215.875 181.125C215.858 180.283 215.841 179.442 215.824 178.574C215.818 177.769 215.811 176.963 215.805 176.133C215.794 175.389 215.784 174.646 215.773 173.879C216.353 169.08 220.136 169.74 224.072 169.727ZM217 174C216.693 176.907 216.489 179.712 216.375 182.625C216.251 185.389 216.128 188.153 216 191C207.585 191.495 207.585 191.495 199 192C199 198.27 199 204.54 199 211C204.61 211.33 210.22 211.66 216 212C216.438 219.875 216.438 219.875 216.568 222.351C216.736 226.305 216.736 226.305 218 230C220.874 230.511 220.874 230.511 224.25 230.688C225.39 230.774 226.529 230.86 227.703 230.949C230.701 230.995 233.135 230.863 236 230C237.488 227.023 237.054 224.307 237 221C236.889 214.222 236.889 214.222 238 212C246.415 211.505 246.415 211.505 255 211C256.587 207.826 256.143 204.418 256.125 200.938C256.129 200.192 256.133 199.446 256.137 198.678C256.472 195.041 256.472 195.041 255 192C252.141 191.763 249.301 191.578 246.438 191.438C245.631 191.394 244.825 191.351 243.994 191.307C241.996 191.2 239.998 191.1 238 191C236.858 186.797 237.011 182.992 237.16 178.656C236.994 175.902 236.409 174.342 235 172C232.375 171.946 229.751 171.906 227.125 171.875C226.005 171.85 226.005 171.85 224.863 171.824C220.463 171.599 220.463 171.599 217 174Z" fill="#FEFEFE"/>
<path d="M395.062 314.375C395.961 314.465 396.859 314.555 397.785 314.648C400 315 400 315 401 316C401.099 317.8 401.128 319.603 401.129 321.406C401.133 322.561 401.136 323.715 401.139 324.905C401.137 326.162 401.135 327.419 401.133 328.715C401.134 329.996 401.135 331.277 401.136 332.597C401.137 335.313 401.135 338.03 401.13 340.746C401.125 344.231 401.128 347.716 401.134 351.201C401.138 354.518 401.135 357.835 401.133 361.152C401.135 362.408 401.137 363.663 401.139 364.956C401.134 366.693 401.134 366.693 401.129 368.465C401.129 369.487 401.128 370.51 401.127 371.564C401 374 401 374 400 376C398.952 375.988 397.904 375.977 396.824 375.965C395.445 375.955 394.066 375.946 392.688 375.937C391.652 375.925 391.652 375.925 390.596 375.912C387.452 375.897 385.006 375.998 382 377C375.332 377.552 369.802 377.481 364 374C357.647 367.791 355.834 361.568 355.688 352.812C355.702 348.354 356.088 345.045 358 341C359.086 344.259 358.87 344.864 358 348C357.174 355.595 358.533 362.19 362 369C366.204 373.536 370.829 374.79 376.875 375.375C381.526 375.285 385.071 373.34 389 371C389.33 371.66 389.66 372.32 390 373C394.003 373.092 394.003 373.092 398 373C399.467 371.769 399.467 371.769 399.006 368.038C398.957 366.258 398.902 364.479 398.844 362.699C398.79 360.752 398.737 358.805 398.684 356.857C398.593 353.788 398.501 350.719 398.407 347.649C397.773 326.583 397.773 326.583 399 316C395.7 316 392.4 316 389 316C389 322.6 389 329.2 389 336C388.01 335.01 387.02 334.02 386 333C386.66 333 387.32 333 388 333C388 327.06 388 321.12 388 315C390.601 313.699 392.187 314.069 395.062 314.375Z" fill="#FEFEFE"/>
<path d="M108 336C108 339.215 107.452 340.284 106 343.062C102.823 350.075 103.101 356.187 105.687 363.375C107.873 368.284 110.371 370.736 115.226 373.07C120.928 374.982 128.428 375.265 134.141 373.242C138.12 370.69 140.529 367.413 142 363C139.03 362.67 136.06 362.34 133 362C132.34 363.32 131.68 364.64 131 366C127.529 367.735 123.795 367.46 120 367C117.062 365.438 117.062 365.438 115 363C114.34 360.69 113.68 358.38 113 356C122.9 356 132.8 356 143 356C143.495 356.99 143.495 356.99 144 358C134.76 358.33 125.52 358.66 116 359C118.322 363.885 118.322 363.885 121 365C122.54 365.07 124.083 365.085 125.625 365.062C126.442 365.053 127.259 365.044 128.101 365.035C128.728 365.024 129.354 365.012 130 365C130 364.01 130 363.02 130 362C132.764 360.618 135.046 360.905 138.125 360.938C139.221 360.947 140.316 360.956 141.445 360.965C142.71 360.982 142.71 360.982 144 361C144 364.824 143.859 366.975 141.363 369.953C135.458 375.307 130.278 377.465 122.301 377.25C115.696 376.532 110.642 373.747 106 369C100.694 362.359 101.099 354.1 102 346C103.249 342 105.01 338.99 108 336Z" fill="#FEFEFE"/>
<path d="M66 317C68.3724 319.372 68.8109 321.052 69.8047 324.242C70.1411 325.31 70.4776 326.377 70.8242 327.477C71.171 328.598 71.5177 329.72 71.875 330.875C72.5592 333.06 73.244 335.245 73.9297 337.43C74.2671 338.508 74.6045 339.587 74.9521 340.698C76.577 345.818 78.2828 350.91 80 356C80.2872 355.103 80.5744 354.206 80.8704 353.281C81.9479 349.919 83.0272 346.557 84.1077 343.195C84.5729 341.746 85.0374 340.297 85.5012 338.848C90.2454 324.028 90.2454 324.028 93 317C94.2452 320.735 93.5724 322.033 92.3516 325.734C91.7894 327.476 91.7894 327.476 91.2158 329.252C90.8146 330.489 90.4134 331.726 90 333C89.2317 335.524 88.4687 338.051 87.7109 340.578C87.1287 342.491 86.5465 344.404 85.9629 346.316C85.5647 347.626 85.1693 348.937 84.7764 350.249C84.1992 352.173 83.6115 354.094 83.0234 356.016C82.6823 357.143 82.3412 358.27 81.9897 359.431C81 362 81 362 79 363C78.6365 361.777 78.273 360.553 77.8984 359.293C77.3909 357.591 76.8831 355.889 76.375 354.188C76.1079 353.292 75.8408 352.397 75.5657 351.474C74.1841 346.865 72.7768 342.267 71.3008 337.688C71.0302 336.847 70.7597 336.006 70.481 335.14C69.9647 333.544 69.4438 331.95 68.9175 330.358C67.4745 325.895 66.5237 321.664 66 317Z" fill="#FEFEFE"/>
<path d="M239 332C242.63 332 246.26 332 250 332C250 332.33 250 332.66 250 333C247.03 333 244.06 333 241 333C241.33 344.88 241.66 356.76 242 369C242.99 369.33 243.98 369.66 245 370C245 370.66 245 371.32 245 372C245.66 372.33 246.32 372.66 247 373C244.75 373.375 244.75 373.375 242 373C238.391 368.646 237.506 365.626 237.574 360.027C237.583 358.716 237.591 357.404 237.6 356.053C237.629 354.681 237.658 353.309 237.688 351.938C237.699 350.562 237.709 349.186 237.717 347.811C237.779 342.34 237.924 337.381 239 332Z" fill="#FEFEFE"/>
<path d="M268 330C269.458 329.973 270.917 329.954 272.375 329.938C273.187 329.926 273.999 329.914 274.836 329.902C277 330 277 330 279 331C279 345.85 279 360.7 279 376C269 377 269 377 267 376C267 375.34 267 374.68 267 374C265.845 374.495 264.69 374.99 263.5 375.5C257.746 377.631 252.77 377.938 247 375.5C246.01 375.005 245.02 374.51 244 374C245.485 373.505 245.485 373.505 247 373C247.66 373.33 248.32 373.66 249 374C255.352 374.54 260.487 374.534 266 371C266.99 370.505 266.99 370.505 268 370C268 371.65 268 373.3 268 375C271.3 375 274.6 375 278 375C278 360.81 278 346.62 278 332C274.37 332 270.74 332 267 332C267.33 331.34 267.66 330.68 268 330Z" fill="#FEFEFE"/>
<path d="M356 329C357.13 334.023 356.779 337.979 356 343C352.04 343.66 348.08 344.32 344 345C348 341 348 341 351.75 340.75C352.823 340.832 353.895 340.915 355 341C355 337.37 355 333.74 355 330C354.34 330 353.68 330 353 330C353.33 330.66 353.66 331.32 354 332C354.134 334.672 354.043 337.322 354 340C351 340 348 340 345 340C344.25 338.25 344.25 338.25 344 336C345.938 333.75 345.938 333.75 348 332C347.34 331.67 346.68 331.34 346 331C349.402 328.906 352.053 328.82 356 329Z" fill="#FEFEFE"/>
<path d="M241.469 329.867C242.969 329.871 242.969 329.871 244.5 329.875C245.5 329.872 246.501 329.87 247.531 329.867C250 330 250 330 251 331C251.11 333.171 251.156 335.346 251.176 337.52C251.199 338.865 251.223 340.211 251.248 341.557C251.283 343.683 251.312 345.809 251.326 347.936C251.341 349.985 251.382 352.033 251.426 354.082C251.44 355.312 251.455 356.541 251.47 357.808C251.761 361.066 251.761 361.066 253.809 363.436C256.043 365.359 256.043 365.359 259.625 364.938C263.255 364.325 263.255 364.325 265 361C265.37 357.898 265.37 357.898 265.414 354.363C265.453 353.065 265.491 351.766 265.531 350.428C265.563 349.056 265.594 347.684 265.625 346.312C265.663 344.929 265.702 343.546 265.742 342.162C265.837 338.775 265.922 335.388 266 332C266.33 332 266.66 332 267 332C267.124 336.181 267.215 340.361 267.275 344.543C267.3 345.964 267.334 347.385 267.377 348.805C267.438 350.854 267.466 352.9 267.488 354.949C267.514 356.18 267.541 357.411 267.568 358.678C266.845 362.906 265.269 364.326 262 367C260 368 260 368 256.563 367.25C251.79 365.576 251.79 365.576 250 363C249.659 359.814 249.659 359.814 249.707 355.926C249.711 355.242 249.716 354.558 249.72 353.854C249.737 351.673 249.774 349.493 249.813 347.312C249.828 345.833 249.841 344.353 249.854 342.873C249.887 339.248 249.938 335.624 250 332C246.37 332 242.74 332 239 332C239 333.65 239 335.3 239 337C238.67 337 238.34 337 238 337C237.957 335 237.959 333 238 331C239 330 239 330 241.469 329.867Z" fill="#FEFEFE"/>
<path d="M151 320C151.66 320 152.32 320 153 320C153 324.29 153 328.58 153 333C150.03 332.505 150.03 332.505 147 332C147 334.64 147 337.28 147 340C148.98 339.67 150.96 339.34 153 339C153 347.58 153 356.16 153 365C152.34 365 151.68 365 151 365C151 357.08 151 349.16 151 341C149.68 341.33 148.36 341.66 147 342C144.551 338.327 144.685 336.336 145 332C145.66 331.34 146.32 330.68 147 330C148.32 330 149.64 330 151 330C151 326.7 151 323.4 151 320Z" fill="#FEFEFE"/>
<path d="M312 355C314.275 359.028 314.233 361.48 313 366C310.55 368.531 308.698 368.957 305.223 369.172C302.474 369.186 299.745 369.13 297 369C297 368.01 297 367.02 297 366C296.34 366 295.68 366 295 366C294.284 363.423 293.88 361.538 294.469 358.906C296 357 296 357 299.695 356.172C301.17 356.012 302.647 355.873 304.125 355.75C304.879 355.673 305.633 355.595 306.41 355.516C308.272 355.327 310.136 355.161 312 355ZM303.5 357.375C302.726 357.445 301.953 357.514 301.156 357.586C298.714 357.91 298.714 357.91 296 360C295.75 362.584 295.75 362.584 296 365C299.83 366.379 302.281 367.149 306.312 366.312C309.263 365.151 309.263 365.151 311 362C311.167 359.375 311.167 359.375 311 357C308.455 357 306.029 357.131 303.5 357.375Z" fill="#FEFEFE"/>
<path d="M383 335C383.99 335 384.98 335 386 335C385.907 336.114 385.907 336.114 385.812 337.25C385.722 340.031 385.722 340.031 387.492 341.695C389.599 344.916 389.401 347.91 389.312 351.625C389.317 352.646 389.317 352.646 389.322 353.688C389.267 358.733 389.267 358.733 387 361C387.035 360.203 387.07 359.407 387.105 358.586C387.393 350.356 387.393 350.356 384 343C381.479 341.74 380.146 342.081 377.375 342.438C376.558 342.539 375.74 342.641 374.898 342.746C374.272 342.83 373.645 342.914 373 343C370.165 348.552 369.62 352.801 370 359C369.34 359 368.68 359 368 359C367.946 357.271 367.907 355.542 367.875 353.812C367.852 352.85 367.829 351.887 367.805 350.895C368.1 346.512 369.144 343.856 372.25 340.75C375.268 338.829 377.512 338.543 381 338C381.66 337.01 382.32 336.02 383 335Z" fill="#FEFEFE"/>
<path d="M222.027 317.574C226.544 321.399 230.355 326.236 232 332C232 333.65 232 335.3 232 337C227.71 337 223.42 337 219 337C219 336.67 219 336.34 219 336C222.63 336 226.26 336 230 336C227.53 327.125 227.53 327.125 221.129 320.848C213.521 317.037 205.759 315.928 197.562 318.375C196.04 318.912 194.519 319.453 193 320C191.671 320.35 190.339 320.689 189 321C195.726 312.592 213.031 312.896 222.027 317.574Z" fill="#FEFEFE"/>
<path d="M214.598 341.867C215.481 341.866 216.365 341.865 217.275 341.863C218.195 341.867 219.115 341.871 220.062 341.875C220.986 341.871 221.91 341.867 222.861 341.863C224.185 341.865 224.185 341.865 225.535 341.867C226.343 341.868 227.152 341.869 227.985 341.871C230 342 230 342 232 343C232 343.66 232 344.32 232 345C224.41 345 216.82 345 209 345C209 346.98 209 348.96 209 351C212.96 351 216.92 351 221 351C221 351.33 221 351.66 221 352C216.38 352 211.76 352 207 352C207 349.03 207 346.06 207 343C209.849 342.05 211.642 341.871 214.598 341.867Z" fill="#FEFEFE"/>
<path d="M353 330C353.66 330 354.32 330 355 330C355 333.63 355 337.26 355 341C352.786 341.358 350.573 341.716 348.359 342.074C345.081 343.361 343.946 345.089 342 348C341.366 350.982 341.366 350.982 341.391 354.176C341.358 355.333 341.326 356.49 341.293 357.682C341.279 358.88 341.265 360.078 341.25 361.312C341.22 362.53 341.191 363.748 341.16 365.002C341.09 368.001 341.037 371 341 374C340.67 374 340.34 374 340 374C339.98 373.36 339.96 372.719 339.94 372.06C339.844 369.144 339.735 366.228 339.625 363.312C339.594 362.305 339.563 361.298 339.531 360.26C339.473 358.795 339.473 358.795 339.414 357.301C339.383 356.405 339.351 355.51 339.319 354.587C338.974 351.788 338.056 349.6 337 347C337.773 344.251 338.58 343.28 340.953 341.699C345.696 339.61 348.816 338.405 354 340C353.505 335.05 353.505 335.05 353 330Z" fill="#FEFEFE"/>
<path d="M358 341C359.086 344.259 358.87 344.864 358 348C357.174 355.595 358.533 362.19 362 369C366.204 373.536 370.83 374.79 376.875 375.375C381.526 375.285 385.072 373.34 389 371C389 372.32 389 373.64 389 375C382.046 377.473 374.209 378.489 367.125 375.875C361.724 372.634 358.532 368.449 356.5 362.48C355.07 355.384 354.873 347.615 358 341Z" fill="#FEFEFE"/>
<path d="M128 339C132.702 342.301 133.583 345.604 135 351C131.875 350.861 128.75 350.713 125.625 350.562C124.736 350.523 123.846 350.484 122.93 350.443C122.079 350.401 121.228 350.36 120.352 350.316C119.566 350.28 118.781 350.243 117.971 350.205C116 350 116 350 114 349C114.299 345.711 114.725 343.436 116.5 340.625C120.253 338.185 123.655 338.115 128 339ZM116 345C115.67 345.99 115.34 346.98 115 348C120.61 348 126.22 348 132 348C131.498 343.217 131.498 343.217 129.312 341.187C123.329 338.115 120.011 340.072 116 345Z" fill="#FEFEFE"/>
<path d="M267 332C270.63 332 274.26 332 278 332C278 346.19 278 360.38 278 375C274.7 375 271.4 375 268 375C268 373.35 268 371.7 268 370C268.66 370.99 269.32 371.98 270 373C272.475 372.505 272.475 372.505 275 372C276.265 368.057 276.224 364.052 276.316 359.953C276.337 359.182 276.358 358.411 276.379 357.616C276.445 355.161 276.504 352.705 276.562 350.25C276.606 348.582 276.649 346.914 276.693 345.246C276.8 341.164 276.902 337.082 277 333C273.7 333 270.4 333 267 333C267 332.67 267 332.34 267 332Z" fill="#FEFEFE"/>
<path d="M113 356C122.9 356 132.8 356 143 356C143.33 356.66 143.66 357.32 144 358C134.76 358.33 125.52 358.66 116 359C116.99 360.65 117.98 362.3 119 364C118.67 364.66 118.34 365.32 118 366C114.194 363.059 114.53 361.354 113 356Z" fill="#FEFEFE"/>
<path d="M161 153C161.33 153.66 161.66 154.32 162 155C164.527 155.656 164.527 155.656 167 156C166.959 156.784 166.918 157.568 166.875 158.375C166.713 161.161 166.713 161.161 169 163C171.571 163.648 171.571 163.648 174 164C174 164.99 174 165.98 174 167C177.3 167 180.6 167 184 167C182 169 182 169 180.047 169.117C173.727 168.451 169.633 167.002 165.301 162.062C161 156.609 161 156.609 161 153Z" fill="#FEFEFE"/>
<path d="M321 340C323 342 323 342 323.227 345.256C323.227 346.642 323.215 348.028 323.195 349.414C323.192 350.144 323.19 350.873 323.187 351.625C323.176 353.959 323.15 356.292 323.125 358.625C323.115 360.206 323.106 361.786 323.098 363.367C323.076 367.245 323.041 371.122 323 375C319.7 375 316.4 375 313 375C313 374.01 313 373.02 313 372C315.97 372.33 318.94 372.66 322 373C321.67 362.11 321.34 351.22 321 340Z" fill="#FEFEFE"/>
<path d="M313 371C313 372.32 313 373.64 313 375C316.3 375 319.6 375 323 375C323 375.33 323 375.66 323 376C319.37 376 315.74 376 312 376C312 375.34 312 374.68 312 374C311.031 374.495 310.061 374.99 309.062 375.5C304.083 377.613 299.057 377.976 293.871 376.32C292.215 375.618 290.602 374.818 289 374C289.66 373.67 290.32 373.34 291 373C291.99 373.33 292.98 373.66 294 374C296.143 374.145 298.29 374.221 300.438 374.25C301.571 374.276 302.704 374.302 303.871 374.328C307.664 373.93 309.529 371 313 371Z" fill="#FEFEFE"/>
<path d="M208 99C208.66 99.66 209.32 100.32 210 101C209.004 101.112 209.004 101.112 207.988 101.227C201.794 102.062 201.794 102.062 197.125 105.875C196.424 106.906 195.722 107.937 195 109C193.685 110.351 192.358 111.692 191 113C191.454 108.122 192.522 105.478 196 102C200.098 99.4163 203.157 98.4497 208 99Z" fill="#FEFEFE"/>
<path d="M275 191C280.171 196.876 280.373 203.548 280.27 211.043C279.895 215.152 278.723 218.266 277 222C276.001 218.828 276.014 217.951 277 214.562C278.653 208.755 277.667 202.914 277 197C276.01 196.67 275.02 196.34 274 196C274.33 194.35 274.66 192.7 275 191Z" fill="#FEFEFE"/>
<path d="M232 114C232.66 114 233.32 114 234 114C233.965 115.572 233.965 115.572 233.93 117.176C233.911 118.555 233.893 119.934 233.875 121.312C233.858 122.003 233.841 122.693 233.824 123.404C233.788 127.171 233.856 128.784 236 132C236 132.99 236 133.98 236 135C237.32 135.66 238.64 136.32 240 137C239.34 137.99 238.68 138.98 238 140C233.805 134.967 231.819 131.644 231.312 125.062C231.226 124.043 231.14 123.023 231.051 121.973C231.002 119.133 231.326 116.749 232 114Z" fill="#FEFEFE"/>
<path d="M383 340C386.062 342.5 386.062 342.5 388 345C387.01 345.495 387.01 345.495 386 346C385.526 345.319 385.051 344.639 384.562 343.938C381.553 341.662 380.857 341.824 377.25 342.25C375.83 342.479 374.412 342.723 373 343C370.165 348.552 369.62 352.801 370 359C369.34 359 368.68 359 368 359C367.946 357.271 367.907 355.542 367.875 353.813C367.852 352.85 367.829 351.887 367.805 350.895C368.067 347.007 369.01 344.148 371.562 341.188C375.328 339.353 378.902 339.183 383 340Z" fill="#FEFEFE"/>
<path d="M368 359C368.66 359 369.32 359 370 359C370.598 359.804 371.196 360.609 371.812 361.438C373.747 364.127 373.747 364.127 376.375 364.875C379.388 365.018 382.054 364.617 385 364C384.67 364.66 384.34 365.32 384 366C383.01 366 382.02 366 381 366C381 366.66 381 367.32 381 368C372.873 367.809 372.873 367.809 369.438 364.625C368 362 368 362 368 359Z" fill="#FEFEFE"/>
<path d="M210 324C212.97 324.495 212.97 324.495 216 325C216 325.66 216 326.32 216 327C217.65 327 219.3 327 221 327C221 329.31 221 331.62 221 334C223.97 334.33 226.94 334.66 230 335C230 335.33 230 335.66 230 336C226.37 336 222.74 336 219 336C218.629 334.927 218.257 333.855 217.875 332.75C216.195 328.742 213.754 327.169 210 325C210 324.67 210 324.34 210 324Z" fill="#FEFEFE"/>
<path d="M312 355C312.33 355.99 312.66 356.98 313 358C312.01 358.495 312.01 358.495 311 359C311 358.34 311 357.68 311 357C309.041 357.309 307.083 357.622 305.125 357.938C304.034 358.112 302.944 358.286 301.82 358.465C299.062 358.856 299.062 358.856 297 360C296.67 360.99 296.34 361.98 296 363C295.34 363 294.68 363 294 363C294.66 361.02 295.32 359.04 296 357C301.28 356.34 306.56 355.68 312 355Z" fill="#FEFEFE"/>
<path d="M138.125 360.937C139.221 360.946 140.316 360.955 141.445 360.965C142.288 360.976 143.131 360.988 144 361C143.67 362.32 143.34 363.64 143 365C142.67 364.34 142.34 363.68 142 363C139.874 362.533 139.874 362.533 137.438 362.375C136.611 362.3 135.785 362.225 134.934 362.148C134.296 362.099 133.657 362.05 133 362C132.567 362.959 132.567 362.959 132.125 363.937C131 366 131 366 129 367C127.46 367.069 125.917 367.084 124.375 367.062C123.149 367.049 123.149 367.049 121.898 367.035C120.959 367.018 120.959 367.018 120 367C119.67 366.34 119.34 365.68 119 365C122.63 365 126.26 365 130 365C130 364.01 130 363.02 130 362C132.765 360.618 135.046 360.905 138.125 360.937Z" fill="#FEFEFE"/>
<path d="M258 135C258.33 136.32 258.66 137.64 259 139C254.507 143.643 250.133 143.762 244 144C244 143.34 244 142.68 244 142C244.592 141.914 245.183 141.827 245.793 141.738C251.498 140.724 254.324 139.506 258 135Z" fill="#FEFEFE"/>
<path d="M242 272C242.66 272.33 243.32 272.66 244 273C243.216 273.619 242.433 274.237 241.625 274.875C239.032 276.899 239.032 276.899 237 279C236.34 279 235.68 279 235 279C233.279 279.632 231.572 280.304 229.875 281C228.965 281.371 228.055 281.743 227.117 282.125C226.419 282.414 225.72 282.703 225 283C224.34 281.68 223.68 280.36 223 279C223.851 279.073 224.702 279.147 225.578 279.223C229.787 278.949 232.133 277.567 235.75 275.438C237.802 274.236 239.879 273.075 242 272Z" fill="#FEFEFE"/>
<path d="M246 100C245.257 100.577 244.515 101.155 243.75 101.75C238.847 105.631 238.847 105.631 236 111C235.34 111 234.68 111 234 111C234.839 107.032 235.49 104.538 238.312 101.562C241.21 99.8778 242.713 99.6243 246 100Z" fill="#FEFEFE"/>
<path d="M311 343C311.66 343 312.32 343 313 343C313.33 344.98 313.66 346.96 314 349C308.72 349 303.44 349 298 349C298 349.66 298 350.32 298 351C296.68 350.34 295.36 349.68 294 349C296.962 347.519 299.835 347.647 303.125 347.438C304.406 347.354 305.688 347.27 307.008 347.184C307.995 347.123 308.983 347.062 310 347C310.33 345.68 310.66 344.36 311 343Z" fill="#FEFEFE"/>
<path d="M104 358C104.66 358 105.32 358 106 358C106 358.66 106 359.32 106 360C106.66 360.33 107.32 360.66 108 361C108.309 362.093 108.619 363.186 108.938 364.312C109.902 367.658 110.744 369.437 113 372C109.654 370.613 108.132 369.204 106.25 366.125C105.822 365.447 105.394 364.769 104.953 364.07C104 362 104 362 104 358Z" fill="#FEFEFE"/>
<path d="M309 200C309.66 200.66 310.32 201.32 311 202C309.642 205.496 308.153 208.883 306.5 212.25C306.077 213.121 305.654 213.993 305.219 214.891C304 217 304 217 302 218C303.355 213.782 304.902 209.706 306.625 205.625C307.071 204.565 307.517 203.506 307.977 202.414C308.314 201.617 308.652 200.821 309 200Z" fill="#FEFEFE"/>
<path d="M54 317C57.96 317 61.92 317 66 317C65.67 317.99 65.34 318.98 65 320C62.03 319.67 59.06 319.34 56 319C55.67 319.99 55.34 320.98 55 322C54.67 320.35 54.34 318.7 54 317Z" fill="#FEFEFE"/>
<path d="M233 344C233 347.3 233 350.6 233 354C232.01 354 231.02 354 230 354C230 351.03 230 348.06 230 345C232 344 232 344 233 344Z" fill="#FEFEFE"/>
<path d="M255 277C255.66 277.66 256.32 278.32 257 279C255.44 279.963 253.877 280.92 252.312 281.875C251.442 282.409 250.572 282.942 249.676 283.492C247.166 284.906 244.697 285.999 242 287C241.67 286.34 241.34 285.68 241 285C241.843 284.59 242.686 284.18 243.555 283.758C244.65 283.219 245.746 282.68 246.875 282.125C248.511 281.324 248.511 281.324 250.18 280.508C253.039 279.155 253.039 279.155 255 277Z" fill="#FEFEFE"/>
<path d="M311 224C311.33 224.66 311.66 225.32 312 226C311.004 227.945 311.004 227.945 309.562 230.125C309.089 230.849 308.616 231.574 308.129 232.32C307.756 232.875 307.384 233.429 307 234C306.34 232.68 305.68 231.36 305 230C308.75 225.125 308.75 225.125 311 224Z" fill="#FEFEFE"/>
<path d="M68 355C70.3278 357.328 70.6509 358.795 71.5 361.938C72.3822 365.193 73.0976 367.146 75 370C74.01 371.485 74.01 371.485 73 373C72.1611 370.564 71.3287 368.127 70.5 365.688C70.2615 364.997 70.023 364.307 69.7773 363.596C68.7679 360.611 68 358.173 68 355Z" fill="#FEFEFE"/>
<path d="M292 138C294 140 294 140 294.266 142.969C294.26 144.134 294.255 145.299 294.25 146.5C294.255 147.665 294.26 148.831 294.266 150.031C294 153 294 153 292 155C292.012 154.169 292.023 153.337 292.035 152.48C292.044 151.394 292.053 150.307 292.062 149.188C292.074 148.109 292.086 147.03 292.098 145.918C292.136 142.935 292.136 142.935 291 140C291.33 139.34 291.66 138.68 292 138Z" fill="#FEFEFE"/>
<path d="M171 367C171.66 367 172.32 367 173 367C173 369.64 173 372.28 173 375C169.37 375 165.74 375 162 375C162 374.67 162 374.34 162 374C166.455 373.505 166.455 373.505 171 373C170.722 371.793 170.722 371.793 170.438 370.562C170.293 369.717 170.149 368.871 170 368C170.33 367.67 170.66 367.34 171 367Z" fill="#FEFEFE"/>
<path d="M389 348C389.33 348 389.66 348 390 348C390.027 350.292 390.046 352.583 390.062 354.875C390.074 356.151 390.086 357.427 390.098 358.742C390 362 390 362 389 364C387.68 364 386.36 364 385 364C385.33 363.01 385.66 362.02 386 361C386.66 361 387.32 361 388 361C388.33 356.71 388.66 352.42 389 348Z" fill="#FEFEFE"/>
<path d="M155 222C157.993 223.098 158.846 223.677 160.25 226.625C160.497 227.409 160.745 228.193 161 229C158.03 228.505 158.03 228.505 155 228C155 226.02 155 224.04 155 222Z" fill="#FEFEFE"/>
<path d="M86 369C86.33 369.99 86.66 370.98 87 372C86.01 373.485 86.01 373.485 85 375C82.3984 375.293 82.3984 375.293 79.375 375.188C77.8707 375.147 77.8707 375.147 76.3359 375.105C75.1796 375.053 75.1796 375.053 74 375C74.33 374.34 74.66 373.68 75 373C82.4118 371.706 82.4118 371.706 85 373C85.33 371.68 85.66 370.36 86 369Z" fill="#FEFEFE"/>
<path d="M268 370C268 371.65 268 373.3 268 375C269.32 375.66 270.64 376.32 272 377C270.35 376.67 268.7 376.34 267 376C267 375.34 267 374.68 267 374C264.69 374.33 262.38 374.66 260 375C261.973 373.027 265.027 370 268 370Z" fill="#FEFEFE"/>
<path d="M297 245C295.592 248.215 293.897 250.322 291.375 252.75C290.428 253.67 290.428 253.67 289.461 254.609C288.738 255.298 288.738 255.298 288 256C288 252.26 288.934 251.547 291.375 248.812C292.001 248.097 292.628 247.382 293.273 246.645C295 245 295 245 297 245Z" fill="#FEFEFE"/>
<path d="M260 233C261.32 233.99 262.64 234.98 264 236C258.824 239.223 258.824 239.223 257 240C256.01 239.67 255.02 239.34 254 239C254.619 238.938 255.237 238.876 255.875 238.812C258.278 238.171 258.278 238.171 259.25 235.438C259.497 234.633 259.745 233.829 260 233Z" fill="#FEFEFE"/>
<path d="M208 98.9999C208.66 99.6599 209.32 100.32 210 101C204.06 101.495 204.06 101.495 198 102C199.959 98.0809 204.114 98.7519 208 98.9999Z" fill="#FEFEFE"/>
<path d="M147 332C148.65 332 150.3 332 152 332C152 332.99 152 333.98 152 335C151.01 335 150.02 335 149 335C148.67 336.65 148.34 338.3 148 340C147.67 340 147.34 340 147 340C147 337.36 147 334.72 147 332Z" fill="#FEFEFE"/>
<path d="M188 231C188.908 231.763 189.815 232.526 190.75 233.312C193.115 235.285 195.513 237.183 198 239C192.973 238.543 189.851 236.008 186 233C186.66 232.34 187.32 231.68 188 231Z" fill="#FEFEFE"/>
<path d="M185 139C187.301 140.782 188.8 142.163 189.488 145.047C189.723 147.025 189.868 149.013 190 151C189 149 189 149 188 147C187.196 145.453 187.196 145.453 186.375 143.875C185 141 185 141 185 139Z" fill="#FEFEFE"/>
<path d="M176 74C176 74.33 176 74.66 176 75C174.329 75.4641 174.329 75.4641 172.625 75.9375C169.205 76.8233 169.205 76.8233 167 78C164.875 77.0625 164.875 77.0625 163 76C167.537 74.5482 171.181 73.7649 176 74Z" fill="#FEFEFE"/>
<path d="M338 369C340 372 340 372 341 375C338.69 374.67 336.38 374.34 334 374C334.99 373.34 335.98 372.68 337 372C337.33 371.01 337.66 370.02 338 369Z" fill="#FEFEFE"/>
<path d="M312 358C312.66 358.66 313.32 359.32 314 360C312.688 362.5 312.688 362.5 311 365C310.01 365 309.02 365 308 365C309.32 362.69 310.64 360.38 312 358Z" fill="#FEFEFE"/>
<path d="M390 316C392.97 316 395.94 316 399 316C399 316.33 399 316.66 399 317C397.608 317.155 397.608 317.155 396.188 317.312C392.967 318.007 391.974 318.477 390 321C390 319.35 390 317.7 390 316Z" fill="#FEFEFE"/>
</svg>
